<svg width="758" height="722" xmlns="http://www.w3.org/2000/svg" xmlns:xlink="http://www.w3.org/1999/xlink" overflow="hidden"><defs><clipPath id="clip0"><rect x="-1" y="17" width="758" height="722"></rect></clipPath></defs><g clip-path="url(#clip0)" transform="translate(1 -17)"><path d="M744.565 355.029 570.732 188.359C542.078 223.144 514.097 259.628 514.097 259.628 477.709 312.631 439.805 323.237 439.805 323.237 368.55 338.377 309.41 323.237 309.41 323.237 352.118 314.975 478.665 151.709 501.458 121.935L403.411 27.9211C403.411 27.9211 383.708 3.69599 356.417 30.9543L192.658 177.846C192.658 177.846 239.658 176.333 257.851 183.912 257.851 183.912 287.17 192.998 303.35 215.711 303.35 215.711 326.089 259.628 344.29 259.628 344.29 259.628 356.423 285.373 295.755 286.887 295.755 286.887 257.851 283.853 244.21 239.949 244.21 239.949 233.597 191.472 182.052 186.945L7.66705 358.076C7.66705 358.076-5.9683 369.684 3.12891 377.761L444.344 377.761C444.344 377.761 456.471 327.778 485.284 362.609 485.284 362.609 500.447 335.357 518.648 359.576 518.648 359.576 529.247 308.085 565.642 345.963 565.642 345.963 586.866 289.92 614.157 317.185 614.157 317.185 630.836 323.244 636.896 356.556 636.896 356.556 662.672 320.204 676.321 377.768 676.321 377.768 348.815 383.821 113.808 497.388L201.741 583.716C201.741 583.716 511.053 430.765 700.575 395.934 700.575 395.934 464.046 485.275 282.099 659.432L350.337 726.068C350.337 726.068 374.598 754.833 407.949 723.041L749.097 397.44C749.11 397.44 767.305 368.661 744.565 355.029Z" fill="#004098" fill-rule="evenodd"></path><path d="M506.165 117.349C583.334 27.9212 725.001 77.9492 725.001 77.9492 696.254 79.4638 628.162 127.95 628.162 127.95 628.162 127.95 596.384 156.178 572.174 188.001L502 122.258 506.165 117.349Z" fill="#004098" fill-rule="evenodd"></path></g></svg>