<svg width="758" height="540" xmlns="http://www.w3.org/2000/svg" xmlns:xlink="http://www.w3.org/1999/xlink" overflow="hidden"><defs><clipPath id="clip0"><rect x="-1" y="108" width="758" height="540"></rect></clipPath></defs><g clip-path="url(#clip0)" transform="translate(1 -108)"><path d="M349.572 331.754C300.012 285.104 227.87 351.036 269.374 412.623 290.586 444.111 345.19 464.589 423.551 460.476 434.745 459.894 438.388 457.442 427.264 452.391 358.688 421.314 386.118 366.16 349.572 331.754Z" fill="#66B821" fill-rule="evenodd"></path><path d="M189.345 475.472C194.45 465.766 195.812 463.346 182.674 469.463 108.335 504.006 93.7567 448.277 44.3556 455.687 16.966 459.804-4.08808 486.174 0.675341 515.105 6.34943 549.662 46.4338 562.785 78.2912 559.516 143.921 552.815 180.907 491.521 189.345 475.472Z" fill="#FF7F00" fill-rule="evenodd"></path><path d="M132.197 451.649C134.816 453.866 138.218 458.16 128.702 456.706 10.3432 438.805-11.145 368.502 19.6186 333.961 35.9382 315.64 70.8708 313.268 87.57 331.744 119.186 366.759 85.1214 411.733 132.197 451.649Z" fill="#3786BC" fill-rule="evenodd"></path><path d="M561.659 170.299C573.31 170.726 576.281 173.049 564.497 177.733 536.409 188.881 508.079 209.623 506.969 256.568 505.358 324.263 406.768 306.318 417.872 235.555 430.43 155.484 548.162 169.794 561.659 170.299Z" fill="#FF7F00" fill-rule="evenodd"></path><path d="M214.064 515.605C234.361 576.173 319.644 555.066 312.586 496.844 306.5 446.738 246.487 462.786 246.487 407.644 246.487 400.926 245.923 395.405 239.17 405.689 220.362 434.366 204.006 485.59 214.064 515.605Z" fill="#B047A0" fill-rule="evenodd"></path><path d="M579.91 482.849C527.828 519.657 508.762 475.151 471.259 473.061 428.065 470.645 415.554 540.733 471.096 553.613 496.857 559.711 560.377 547.297 586.52 484.123 587.904 480.791 586.473 477 579.91 482.849Z" fill="#66B821" fill-rule="evenodd"></path><path d="M564.207 436.359C575.912 377.381 526.661 322.247 521.97 316.435 520.755 314.885 510.717 302.857 515.058 320.527 528.072 373.297 500.626 388.254 492.319 425.865 480.31 479.999 553.998 487.803 564.207 436.359Z" fill="#FF7F00" fill-rule="evenodd"></path><path d="M263.044 316.127C200.58 322.432 164.173 339.861 144.508 355.095 115.536 377.536 118.981 413.304 136.308 430.678 154.477 448.924 189.356 454.568 211.952 426.794 239.201 393.26 212.536 352.409 265.943 321.49 273.769 316.96 268.866 315.535 263.044 316.127Z" fill="#FF4100" fill-rule="evenodd"></path><path d="M667.163 323.407C655.35 328.513 646.149 337.925 639.543 348.826 632.586 360.321 629.842 373.79 622.79 385.207 616.669 395.074 608.852 404.541 599.658 411.44 594.577 415.238 591.731 420.634 601.472 418.613 609.289 416.977 620.351 415.442 633.782 416.804 647.22 418.12 665.036 424.651 673.12 426.593 689.771 432.137 709.221 431.871 721.808 418.566 742.344 396.875 739.718 356.68 719.572 335.451 706.423 321.622 685.026 315.709 667.163 323.407Z" fill="#66B821" fill-rule="evenodd"></path><path d="M715.548 446.514C673.679 439.947 653.137 471.886 591.557 429.347 586.091 425.572 581.503 422.436 585.531 434.908 592.148 455.234 621.522 536.874 678.437 551.358 761.78 572.597 783.854 459.173 715.548 446.514Z" fill="#3786BC" fill-rule="evenodd"></path><path d="M319.475 145.416C310.44 191.696 346.215 213.585 337.429 281.644 336.729 287.077 341.62 286.938 342.942 283.906 370.109 221.513 410.674 223.93 426.038 175.77 448.992 103.8 331.364 84.399 319.475 145.416Z" fill="#3786BC" fill-rule="evenodd"></path><path d="M141.234 323.679C196.707 327.99 199.574 287.361 298.11 292.876 306.132 293.326 305.155 288.099 299.984 286.546 211.665 260.061 196.598 203.782 150.693 202.05 75.6602 199.215 65.0294 317.745 141.234 323.679Z" fill="#B047A0" fill-rule="evenodd"></path><path d="M208.606 208.932C242.487 252.505 268.803 223.734 307.634 265.687 313.308 271.818 317.589 268.834 313.176 261.683 286.105 217.782 316.546 178.088 293.811 149.06 250.948 94.3609 168.762 157.668 208.606 208.932Z" fill="#FF4100" fill-rule="evenodd"></path><path d="M525 254.336C525 300.409 575.914 321.748 579.169 407.649 579.365 413.328 584.627 413.491 585.728 407.882 602.561 322.315 649.712 305.753 653.787 256.581 660.072 180.592 525 166.827 525 254.336Z" fill="#FF4100" fill-rule="evenodd"></path><path d="M480.169 405.412C500.756 387.703 507.856 356.169 489.156 333.312 454.861 294.226 418.023 333.133 382.988 267.895 377.23 257.179 373.478 259.498 375.6 271.089 382.785 310.935 369.624 350.517 393.044 385.865 416.26 420.904 457.717 424.788 480.169 405.412Z" fill="#B047A0" fill-rule="evenodd"></path><path d="M374.504 480C349.38 480 329 500.266 329 525.285L329 647 420 647 420 525.285C420.008 500.266 399.636 480 374.504 480Z" fill="#8C8C70" fill-rule="evenodd"></path></g></svg>