<svg width="758" height="506" xmlns="http://www.w3.org/2000/svg" xmlns:xlink="http://www.w3.org/1999/xlink" overflow="hidden"><defs><clipPath id="clip0"><rect x="-1" y="125" width="758" height="506"></rect></clipPath></defs><g clip-path="url(#clip0)" transform="translate(1 -125)"><path d="M748.935 273.425C748.944 256.807 756.824 256.536 754.874 240.024 752.923 223.513 757.452 222.971 755.501 206.46 753.551 189.957 750.693 190.296 748.751 173.783 746.8 157.272 754.989 150.742 745.033 137.446 739.837 130.5 734.092 150.663 726 153.755L725.44 155.64C725.613 155.33 725.835 155.031 726 154.712 726 154.712 758.833 353.549 439.695 502.251 439.493 502.348 439.213 502.454 439 502.551 445.238 505.208 445.46 510.474 454.344 512 464.812 513.787 467.024 503.421 477.492 505.217 487.96 507.005 487.7 508.725 498.157 510.58 512.285 513.111 510.943 520.55 525.061 523.15 539.17 525.739 539.121 526.019 553.24 528.599 567.349 531.198 567.696 529.323 581.814 531.922 595.227 534.386 594.841 537.903 610.031 538 627.443 538.116 626.824 529.671 644.072 527.284 661.319 524.889 661.396 525.488 678.652 523.091 695.9 520.705 696.344 518.203 713.755 518.677 732.054 519.188 734.623 528.328 749.089 518.628 755.665 514.213 752.71 507.43 750.258 499.884 747.814 492.357 744.086 492.348 741.643 484.803 739.191 477.266 743.962 476.938 741.508 469.392 739.065 461.856 738.602 457.306 738.119 449.402 737.511 439.46 733.619 441.586 734.999 431.722 736.39 421.866 730.77 427.093 732.151 417.229 733.542 407.373 735.174 407.432 736.564 397.577 737.955 387.722 743.807 388.756 745.245 378.892 747.157 365.81 734.758 363.954 736.719 350.882 738.679 337.81 742.851 338.428 744.811 325.346 746.781 312.264 744.203 311.869 746.173 298.796 748.152 285.715 748.924 286.652 748.935 273.425Z" fill="#00AB84" fill-rule="evenodd"></path><path d="M709.226 158.613C701.128 161.701 697.253 151.596 689.156 154.695 681.058 157.792 683.407 162.213 674.758 162.821 664.158 163.564 662.921 158.41 652.456 156.634 641.982 154.839 642.591 164.317 632.116 162.531 621.652 160.736 621.594 163.419 611.129 161.634 600.655 159.848 601.312 155.911 590.857 154.048 576.72 151.539 577.154 149.067 563.028 146.491 548.901 143.914 547.489 151.577 533.363 149.001 519.235 146.394 520.356 140.314 506.23 137.728 492.103 135.131 492.615 126.098 478.256 126.002 460.834 125.886 460.622 131.127 443.364 133.51 426.105 135.894 426.889 141.589 409.641 143.972 392.383 146.356 391.928 143.056 374.671 145.43 357.413 147.823 361.916 130.093 347.731 140.209 340.793 145.159 343.18 158.323 345.644 166.488 348.107 174.644 350.137 174.026 352.601 182.19 355.065 190.356 348.987 192.18 351.451 200.334 353.915 208.49 360.621 207.014 361.124 215.516 361.722 225.446 356.611 221.528 355.22 231.382 353.828 241.236 350.466 244.421 349.084 254.256 347.692 264.11 352.446 264.775 351.064 274.629 349.673 284.473 349.287 284.415 347.846 294.26 345.933 307.327 352.475 308.311 350.504 321.379 348.533 334.447 340.609 331.821 338.638 344.898 336.667 357.966 344.001 360.476 342.04 373.542 340.069 386.61 338.01 385.703 338 398.916 337.981 413.692 338.725 414.454 340.368 427 369.578 392.141 392.865 369.055 392.865 369.055 392.865 369.055 461.887 292.85 637.702 223.613 638.04 223.469 638.368 223.333 638.706 223.198 638.706 223.198 702.617 197.604 725.44 155.756L726 153.874C715.516 155.621 709.226 158.613 709.226 158.613Z" fill="#FFC72C" fill-rule="evenodd"></path><path d="M237.366 589.219C245.066 568.547 255.76 547.497 267.932 527.009 267.285 527.009 266.648 527 266 527 119.098 527 0 550.054 0 578.5 0 606.947 119.098 630.001 266 630.001 412.912 630.001 532.001 606.937 532.001 578.5 532.001 555.718 455.633 536.411 349.808 529.624 341.393 531.763 335.916 533.1 335.916 533.1 280.27 546.655 237.366 589.219 237.366 589.219Z" fill="#003087" fill-rule="evenodd"></path></g></svg>