<svg width="758" height="754" xmlns="http://www.w3.org/2000/svg" xmlns:xlink="http://www.w3.org/1999/xlink" overflow="hidden"><defs><clipPath id="clip0"><rect x="-1" y="1" width="758" height="754"></rect></clipPath></defs><g clip-path="url(#clip0)" transform="translate(1 -1)"><path d="M387.436 400.613C563.795 366.289 662.402 464.175 713.767 550.687 740.72 498.951 756 440.206 756 377.917 756 352.878 753.513 328.415 748.8 304.745 357.919 237.601 234.597 533.2 196 707.891 249.924 737.288 311.809 754 377.626 754 482.601 754 577.61 711.487 646.126 642.854 569.083 405.637 387.436 400.613 387.436 400.613L387.436 400.613Z" fill="#EF4123" fill-rule="evenodd"></path><path d="M365.987 131.007C331.078 131.007 302.744 158.937 302.744 193.36 302.744 227.805 331.078 255.727 365.987 255.727 400.901 255.727 429.229 227.805 429.229 193.36 429.229 158.941 400.901 131.007 365.987 131.007ZM378.101 1C440.748 1 499.842 16.202 551.849 43.0731 538.934 110.096 512.601 200.322 459.581 264.039 459.581 264.039 554.926 208.761 622.988 90.6974 672.011 132.268 710.305 186.111 733 247.473 635.523 247.655 209.303 269.451 100.089 633 37.9816 565.884 0 476.224 0 377.716 0 336.931 6.53372 297.699 18.5665 260.962 224.033 314.826 440.043 277.03 440.043 277.03 238.78 297.331 115.115 220.054 60.288 173.535 127.625 69.7203 244.803 1 378.101 1Z" fill="#EF4123" fill-rule="evenodd"></path></g></svg>