<svg width="758" height="760" xmlns="http://www.w3.org/2000/svg" xmlns:xlink="http://www.w3.org/1999/xlink" overflow="hidden"><defs><clipPath id="clip0"><rect x="-1" y="-1" width="758" height="760"></rect></clipPath></defs><g clip-path="url(#clip0)" transform="translate(1 1)"><path d="M386.199 0.0734408C253.015-2.52337 134.592 63.8557 65 166.296 66.2752 167.763 67.4248 169.183 68.4234 170.468 69.1744 171.34 69.8417 172.211 70.454 172.919 70.857 172.952 71.1676 173.04 71.4653 173.12 76.4242 174.016 83.8423 175.348 90.2279 181.12 94.2222 184.744 96.7981 188.777 98.8873 191.998 99.7727 193.385 100.994 195.291 101.552 195.844 102.634 196.908 104.304 198.16 106.083 199.518 108.936 201.696 112.213 204.142 115.367 207.375 118.023 210.069 120.448 212.791 122.769 215.447 124.367 217.378 125.923 219.142 127.505 220.813 128.713 222.141 130.396 223.62 132.137 225.199 134.764 227.536 137.697 230.196 140.549 233.43 144.195 237.48 146.276 241.769 147.925 245.2 148.605 246.478 149.578 248.405 149.964 248.978L149.964 248.945C152.528 251.956 154.978 255.081 157.344 258.064L161.041 262.705C161.699 263.505 163.264 264.866 164.716 266.056 167.518 268.46 171.026 271.409 174.097 275.485 176.455 278.539 178.36 281.5 180.185 284.42 181.595 286.514 182.857 288.478 184.116 290.238 187.07 294.28 188.903 298.423 190.405 301.79 191.198 303.612 192.003 305.543 192.683 306.444 193.338 307.357 194.714 308.802 196.174 310.298 198.624 312.782 201.62 315.89 204.305 319.861 207.099 324.016 208.731 328.259 210.053 331.648 210.556 332.988 211.115 334.358 211.572 335.363 212.054 335.719 212.709 336.138 213.242 336.507 216.69 338.823 221.964 342.367 225.664 348.399 227.728 351.783 229.122 355.164 230.255 358.041L237.508 362.963C249.332 370.901 254.303 366.77 248.564 353.756L181.846 201.935C176.14 188.899 178.477 187.525 187.074 198.881L286.554 330.249C295.159 341.617 301.18 339.309 299.972 325.126L285.984 160.323C284.792 146.152 287.503 145.621 291.988 159.092L340.107 314.667C344.659 328.184 350.621 327.819 353.398 313.867L380.317 153.428C383.107 139.417 385.88 139.656 386.505 153.873L393.365 317.938C393.973 332.163 400.242 333.692 407.395 321.39L489.51 179.437C496.622 167.113 499.173 168.177 495.099 181.854L448.587 338.572C444.538 352.185 450.039 355.704 460.796 346.388L583.99 239.625C594.726 230.288 596.816 232.169 588.529 243.755L517.641 343.029C521.237 342.924 524.871 342.79 527.681 341.236 533.45 338.145 536.811 330.249 542.743 327.359 548.701 324.514 556.463 325.511 562.526 322.864 568.517 320.2 572.712 313.096 578.775 310.658 584.863 308.224 591.232 306.465 597.294 304.253 603.982 301.795 610.174 297.987 616.749 295.775 623.386 293.585 630.41 292.596 636.925 290.602 643.408 288.596 651.308 291.407 657.673 289.597 664.603 287.661 669.923 280.264 676.619 278.551 683.378 276.8 690.666 277.86 697.048 276.352 703.995 274.697 711.111 274.936 717.589 273.554 724.612 272.038 730.83 268.368 737.199 267.141 738.445 266.894 739.725 266.797 741 266.743 694.06 115.013 553.979 3.3365 386.199 0.0734408Z" fill="#F15A38" fill-rule="evenodd"></path><path d="M328.761 733.452C328.774 733.076 328.908 732.694 329 732.36 328.744 731.845 328.422 731.267 328.111 730.798 326.325 727.59 323.81 723.231 322.61 717.636 322.166 715.505 321.458 713.085 320.661 710.51 319.768 707.671 318.791 704.438 317.994 701.029 317.005 696.599 316.883 692.433 316.703 689.103 316.64 687.039 316.556 684.924 316.301 683.894 315.454 680.318 314.951 676.989 314.502 673.97 314.146 671.466 313.81 669.042 313.328 667.128 312.917 665.457 312.07 663.397 311.19 661.178 310.037 658.276 308.653 654.955 307.706 651.153L306.712 647.514 303.412 635.04C302.851 633.042 302.004 630.777 301.111 628.411 300.08 625.693 298.931 622.666 298.008 619.412 296.31 613.65 296.512 608.253 296.675 604.4 296.725 603.228 296.763 601.854 296.734 601.159 296.029 598.906 295.128 596.528 294.147 593.998 293.12 591.352 292.059 588.635 291.124 585.67 290.86 585.129 289.87 583.819 289.166 582.793 286.965 579.782 283.972 575.674 282.139 570.277 281.636 568.753 280.651 566.718 279.548 564.607 278.127 561.793 276.458 558.585 275.184 554.896 274.165 552.007 273.05 549.118 271.863 546.107L269.268 539.306C266.848 532.845 267.293 526.644 267.574 522.574 267.637 522.042 267.671 521.397 267.704 520.827 267.05 519.433 266.216 517.842 265.214 516.129 263.7 513.307 261.897 510.145 260.396 506.498 260.023 505.514 258.782 503.776 257.688 502.085 255.818 499.296 253.474 495.837 251.697 491.612 250.212 488.086 249.16 484.727 248.233 481.771 247.521 479.418 246.85 477.19 246.162 475.637 244.934 472.861 243.89 470.151 242.859 467.551 241.79 464.904 240.779 462.409 239.743 460.198L236.611 453.292C235.232 450.177 233.891 447.204 232.507 444.382 232.02 443.327 230.692 441.622 229.409 439.96 227.358 437.343 224.868 434.093 222.809 430.035 220.55 425.614 219.468 421.301 218.571 417.892 218.281 416.783 217.942 415.405 217.678 414.509 217.154 414.048 216.487 413.516 215.938 413.026 212.76 410.501 208.416 407.005 205.33 401.415 202.27 396 201.39 390.54 200.714 386.629 200.547 385.569 200.329 384.234 200.144 383.601 198.127 380.054 196.773 376.558 195.662 373.711 195.1 372.228 194.539 370.729 194.006 369.628 193.482 369.243 192.828 368.794 192.279 368.418 188.724 366.064 183.902 362.844 180.338 357.17 177.718 353.15 176.171 349.126 174.909 345.843 174.255 344.21 173.479 342.158 172.976 341.467 172.246 340.345 170.783 338.867 169.224 337.259 166.867 334.872 164.251 332.125 161.811 328.654 159.073 324.697 157.325 320.735 155.904 317.574 155.145 315.916 154.26 313.847 153.77 313.152 151.774 310.43 150.067 307.792 148.567 305.409 147.057 303.056 145.598 300.828 144.248 299.07 143.557 298.173 141.883 296.771 140.278 295.406 137.754 293.216 134.572 290.506 131.75 286.981L127.842 282.077C125.561 279.196 123.424 276.47 121.281 273.941 117.843 269.9 115.801 265.775 114.225 262.417 113.613 261.236 112.787 259.578 112.41 259.042 110.921 257.4 109.034 255.696 107.039 253.912 104.892 251.965 102.464 249.738 100.05 247.233 98.0161 245.027 96.1797 242.95 94.3645 240.868 92.3687 238.54 90.4654 236.321 88.6669 234.508 87.3543 233.181 85.3841 231.74 83.3545 230.149 80.9564 228.306 78.2564 226.263 75.5732 223.704 71.7622 220.032 69.284 216.113 67.2342 213.001 66.8358 212.39 66.3873 211.715 66.018 211.092 65.6073 211.008 65.2301 210.958 64.903 210.87 60.3666 210.045 53.5114 208.801 47.6757 203.822 46.5937 202.88 45.5708 201.921 44.6191 201 17.3502 251.961 1.29278 309.957 0.072628 371.696-3.69655 566.085 139.988 728.993 328.505 754 328.153 752.706 327.793 751.421 327.541 750.035 326.313 743.301 327.763 737.401 328.761 733.452Z" fill="#00AC6D" fill-rule="evenodd"></path><path d="M295.117 492.407C295.751 493.955 296.822 495.854 297.951 497.955 299.656 500.995 301.621 504.464 303.246 508.519 305.778 515.141 305.312 521.364 305.022 525.554 304.988 526.191 304.9 527.021 304.884 527.625L306.819 532.637C308.066 535.82 309.322 539.082 310.552 542.529 311.077 543.964 312.059 545.863 313.055 547.88 314.587 550.946 316.326 554.372 317.723 558.478 317.598 558.218 317.547 558.075 317.547 558.075 317.849 558.562 318.828 559.95 319.5 560.96 321.809 564.11 324.92 568.412 326.755 574.103 327.419 576.145 328.292 578.364 329.187 580.796 330.433 583.984 331.689 587.25 332.781 590.869 334.574 596.719 334.347 602.205 334.229 606.239 334.133 607.354 334.133 608.864 334.133 609.556 334.7 611.297 335.413 613.309 336.216 615.406 337.37 618.359 338.63 621.684 339.642 625.374L343.093 638.316 344.067 642.027C344.458 643.516 345.214 645.491 346.083 647.592 347.338 650.738 348.757 654.319 349.815 658.429 350.71 662.165 351.239 665.772 351.734 668.955 352.087 671.391 352.427 673.74 352.889 675.681 353.956 680.244 354.136 684.547 354.262 687.998 354.312 690.04 354.447 692.129 354.707 693.316 355.173 695.324 355.862 697.547 356.567 699.946 357.47 702.906 358.482 706.27 359.288 709.859 359.515 710.409 360.199 711.654 360.724 712.543 362.626 715.844 365.225 720.36 366.359 726.194 367.745 732.975 366.229 739.047 365.246 742.993 365.07 743.572 364.931 744.247 364.801 744.859 365.154 746.042 365.574 747.539 366.099 749.12 366.993 751.687 367.862 754.605 368.568 757.814 369.529 757.851 370.361 757.927 371.246 757.927 483.423 760.112 585.124 713.453 656 637.566 524.328 536.49 362.63 501.075 294 490 294.416 490.801 294.777 491.611 295.117 492.407Z" fill="#005BAA" fill-rule="evenodd"></path><path d="M755.935 386.686C756.469 357.977 753.706 329.976 748.13 303 745.784 303.41 743.391 303.787 741.069 304.197 734.582 305.378 728.801 309.593 722.617 310.807 716.277 312.105 710.219 314.039 704.118 315.441 697.401 316.982 690.604 317.233 684.201 318.92 677.664 320.544 670.686 320 664.447 321.775 658.124 323.6 652.826 328.502 646.852 330.428 640.235 332.542 633.295 333.065 627.073 335.271 620.691 337.506 613.47 337.189 607.458 339.533 601.366 341.957 596.378 346.817 590.681 349.286 584.375 351.97 577.372 352.727 571.574 355.478 565.146 358.517 560.414 364.336 554.608 367.409 548.587 370.539 542.579 373.122 537.151 376.3 531.18 379.757 524.702 381.909 519.413 385.304 513.543 389.051 509.483 394.774 504.399 398.369 498.55 402.547 494.159 407.855 489.284 411.74 483.625 416.303 476.723 418.413 472.327 422.461 467.873 426.5 463.036 429.28 459.274 432.269L450.802 445.857C449.03 452.245 449.03 456.955 446.309 453.016L428 482.365C504.844 505.803 596.899 544.466 678.726 608 725.686 546.384 754.298 469.974 755.935 386.686Z" fill="#FAA81A" fill-rule="evenodd"></path></g></svg>