<svg width="758" height="480" xmlns="http://www.w3.org/2000/svg" xmlns:xlink="http://www.w3.org/1999/xlink" overflow="hidden"><defs><clipPath id="clip0"><rect x="-1" y="138" width="758" height="480"></rect></clipPath></defs><g clip-path="url(#clip0)" transform="translate(1 -138)"><path d="M431.567 156.481 602.302 267.509C602.302 267.509 689.293 314.204 611.982 356.063 611.982 356.063 576.56 385.733 462.172 376.062 462.172 376.062 404.169 366.139 373.57 345.232 373.57 345.232 333.287 323.825 365.525 304.578 365.525 304.578 413.848 288.461 328.469 280.4 328.469 280.4 239.868 270.729 202.807 277.174 202.807 277.174 139.993 280.4 111 290.071L325.241 150.484C325.241 150.49 380.021 121.017 431.567 156.481Z" fill="#0071BB" fill-rule="evenodd"></path><path d="M33.1272 333.806C33.1272 333.806 78.32 300.04 179.934 298.43 179.934 298.43 242.878 295.202 278.343 306.444 278.343 306.444 218.66 377.253 318.716 431.987 318.716 431.987 380.013 475.536 507.459 483.589 507.459 483.589 586.53 491.61 622.001 486.767L451.009 594.719C451.009 594.719 385.895 655.145 286.429 576.978L29.8998 409.447C29.8998 409.453-39.4776 378.914 33.1272 333.806Z" fill="#0071BB" fill-rule="evenodd"></path><path d="M346 381.795C346 381.795 465.424 444.54 618.715 397.912 618.715 397.912 680.03 388.294 717.153 340 717.153 340 788.193 372.178 738.138 407.573 738.138 407.573 734.927 426.864 612.274 442.976 612.274 442.976 526.733 447.809 487.996 436.482 488.002 436.482 376.632 417.196 346 381.795Z" fill="#0071BB" fill-rule="evenodd"></path></g></svg>