<svg width="742" height="302" xmlns="http://www.w3.org/2000/svg" xmlns:xlink="http://www.w3.org/1999/xlink" overflow="hidden"><defs><clipPath id="clip0"><rect x="16" y="236" width="742" height="302"></rect></clipPath></defs><g clip-path="url(#clip0)" transform="translate(-16 -236)"><path d="M484.053 247.755C483.64 247.413 483.204 247.148 482.672 247.072 480.575 246.648 478.496 248.137 475.318 250.634L472.862 252.448C464.199 256.988 457.585 278.304 456.115 287.059 455.853 287.189 455.655 287.313 455.195 287.542 449.86 278.504 440.151 270.089 430 268.818 434.021 283.962 447.553 329.721 465.561 325.758 474.714 323.738 493.803 285.8 494.001 264.884 494.001 264.607 494.001 264.36 494.001 264.112 493.857 253.042 488.671 249.098 484.053 247.755Z" stroke="#FFFFFF" stroke-width="20" stroke-linecap="round" stroke-linejoin="round" stroke-miterlimit="10" fill="#FFFFFF" fill-rule="evenodd"></path><path d="M604.489 482.201C582.107 483.144 574.68 481.931 552.748 489.234 549.68 490.177 547.021 492.249 544.552 495.084 544.907 499.763 542.141 507.181 546.441 508.934 546.666 508.965 546.642 509.667 546.855 510.052 548.123 511.343 549.438 511.529 550.717 513.181 551.546 514.364 552.227 513.055 553.092 513.547 553.501 513.968 553.714 514.712 554.146 514.79 556.296 515.818 558.28 515.415 560.418 516.472 561.502 517.355 562.592 517.169 563.67 517.343 564.321 517.084 565.168 518.634 565.388 519.025 569.468 520.754 573.217 519.199 577.346 519.133 589.766 518.941 587.426 517.704 599.84 517.499 610.299 517.349 620.475 518.965 630.922 518.803 636.578 518.61 642.732 518.803 648.383 518.406 658.38 517.805 668.401 519.373 678.417 519.493 683.427 519.373 689.243 521.361 694.289 521.739 699.738 521.739 704.885 520.358 710.417 521.463 712.14 521.608 713.894 521.343 715.67 522.178 717.27 523.013 719.081 523.83 720.586 523.956 725.425 524.31 729.66 522.478 734.327 520.695 737.105 519.848 739.9 519.361 742.423 517.752 743.696 517.157 744.887 515.115 745.378 513.025 746.682 509.234 747.724 505.06 746.356 500.742 746.113 500.724 745.467 501.042 745.242 500.652 744.757 499.931 744.881 498.171 744.188 498.111 742.175 497.288 740.22 497.12 738.218 496.646 735.559 496.075 732.864 494.82 730.211 494.303 717.82 491.24 646.937 480.399 604.489 482.201Z" stroke="#FFFFFF" stroke-width="20" stroke-linecap="round" stroke-linejoin="round" stroke-miterlimit="10" fill="#FFFFFF" fill-rule="evenodd"></path><path d="M387.606 490.229C389.866 490.727 392.43 490.686 393.657 492.177 394.874 493.348 392.453 495.284 392.595 496.841 392.548 500.542 393.943 503.887 393.895 507.594 393.966 508.212 393.652 508.812 392.952 509.477 392.317 510.404 391.29 511.384 390.246 512.032 387.119 514.022 383.014 513.25 379.4 514.301 374.772 515.721 369.658 516.232 364.947 516.731 356.213 517.628 347.954 515.787 339.113 515.519 335.773 515.335 332.153 515.787 329.317 516.826 325.354 517.883 321.313 517.729 317.249 517.587 296.251 516.826 275.639 516.387 254.718 516.547 251.058 516.69 247.047 517.165 243.38 517.295 226.571 518.234 209.798 517.943 192.977 518.389 187.103 518.537 181.247 518.704 175.361 518.549 172.062 518.626 168.763 518.697 165.845 518.769 153.42 519.405 140.658 519.993 128.168 519.476 123.41 519.518 118.295 519.571 113.513 519.606 99.6231 520.343 85.4661 522.631 71.4817 521.834 61.1874 521.288 51.5223 518.929 42.0764 514.076 35.6566 510.743 30.631 506.156 27 500.625 29.397 497.506 33.0161 496.265 36.9915 495.302 46.3483 492.748 55.0642 491.126 64.4864 489.527 72.4727 488.185 79.7764 487.532 87.4482 486.842 188.1 477.83 300.856 481.186 344.839 484.134 359.631 485.132 373.39 487.08 387.606 490.229Z" stroke="#FFFFFF" stroke-width="20" stroke-linecap="round" stroke-linejoin="round" stroke-miterlimit="10" fill="#FFFFFF" fill-rule="evenodd"></path><path d="M568.879 396.385C568.879 396.953 568.879 396.953 568.879 397.527 569.769 399.814 571.554 400.4 573.339 402.111 575.159 402.111 577.388 402.111 579.173 402.111 579.173 400.963 580.519 402.111 580.519 400.963 581.871 400.963 583.846 400.4 584.806 398.682 585.299 398.682 585.299 398.682 585.755 398.682 586.727 396.947 588.162 395.775 590.083 395.775 592.479 392.914 594.869 390.042 597.276 387.175 597.276 386.015 597.751 384.878 598.699 384.285 600.152 379.133 601.095 373.388 603.508 368.195 603.508 366.489 604.457 364.185 603.995 362.456 604.457 362.456 604.932 362.456 604.932 361.888 604.457 359.56 605.88 358.423 606.853 357.286 607.813 357.286 608.75 357.286 609.248 356.131 609.248 355.556 609.248 355.556 609.248 355 611.632 355 614.342 356.724 616.227 358.997 617.496 358.997 618.119 358.997 619.388 358.997 619.388 360.176 620.017 360.176 620.657 360.751 623.171 360.751 628.716 360.176 631.265 361.307 631.265 363.031 633.785 362.462 634.414 364.191 635.031 365.909 635.031 367.626 636.311 369.368 636.311 369.93 636.311 370.493 635.665 371.097 636.934 372.802 638.179 375.68 636.311 377.392 636.928 379.702 636.311 382.58 637.562 384.89 636.311 386.021 636.934 387.762 636.934 388.911 638.179 391.197 638.179 394.081 638.837 396.959 641.339 399.819 640.723 403.284 642.626 406.151 642.626 407.305 642.626 408.448 642.626 409.567 643.872 409.567 642.626 411.32 643.872 411.32 644.5 414.785 642.626 418.8 642.626 422.265 641.98 422.815 641.339 423.407 640.729 423.988 640.729 424.539 640.729 424.539 640.729 425.125 640.082 425.125 639.466 425.125 639.466 424.533 638.179 426.268 636.317 427.417 635.036 429.141 633.785 428.566 633.157 429.715 632.516 429.715 631.265 429.715 632.516 431.438 631.265 431.438 629.984 431.438 628.716 432.012 628.093 432.587 626.818 433.161 622.537 432.007 621.286 433.161L620.663 432.587C620.029 433.161 619.394 433.736 618.125 433.736 618.125 433.155 618.125 432.587 617.502 432.587 616.862 434.304 614.099 435.471 612.456 434.891 611.905 433.742 612.124 432.901 610.689 432.368 610.215 428.743 610.215 425.616 608.294 422.507 608.756 422.507 608.756 421.992 608.756 421.477 608.294 419.914 607.345 418.356 607.345 416.804 605.886 414.708 605.412 411.623 603.514 410.065 604 409.532 602.536 409.017 603.01 408.495 602.079 407.477 601.593 406.944 600.621 405.907 599.684 405.907 599.684 406.435 599.197 406.944 598.711 409.532 596.316 411.616 595.83 414.21L595.367 413.695C594.881 415.247 593.446 416.283 593.446 417.853 592.497 418.35 591.999 419.914 591.074 420.429 591.074 420.961 591.074 420.961 591.074 421.477 587.706 424.574 585.874 429.608 581.859 431.776 580.857 433.949 578.319 434.381 577.323 436.804 575.805 436.804 573.433 437.402 571.566 438 570.302 437.396 568.429 436.17 567.177 437.396 567.177 436.798 566.531 436.798 565.926 436.798L565.31 437.396C564.047 436.17 562.191 437.396 560.305 436.798 556.522 433.753 552.146 432.552 547.775 430.141 546.501 430.141 547.775 428.323 546.501 428.323 545.872 428.323 545.273 428.323 544.639 427.731 544.639 425.907 545.273 424.693 543.382 423.491L544.01 422.886C544.01 422.294 543.382 422.294 542.771 422.294 542.137 418.652 540.263 415.626 539.652 412.019 538.982 411.409 538.982 411.409 538.389 410.805 538.389 408.981 537.773 407.193 537.115 405.973 536.491 403.562 538.674 401.537 537.458 399.221 537.458 398.676 537.458 398.078 538.075 397.522 537.458 394.638 538.075 392.908 538.674 390.036 538.075 390.036 538.075 389.479 538.075 388.893 539.267 386.613 539.267 384.28 539.267 381.993 539.842 380.27 541.033 378.559 541.632 376.817L541.033 376.249C542.226 375.1 541.632 373.383 543.435 372.222 543.435 371.641 543.435 371.085 542.836 371.085 542.836 369.918 544.028 369.356 544.615 368.769 545.214 367.614 547.526 363.101 548.961 362.225L548.505 361.544C549.543 360.057 552.235 359.447 554.346 359.252 555.952 359.11 559 360.674 559.896 361.165 560.572 362.527 559.937 363.593 560.821 365.322 561.283 365.322 561.283 365.322 561.722 365.322 561.722 365.897 561.722 365.897 561.722 366.477 561.722 367.051 562.161 367.051 562.6 367.051 563.051 368.769 563.958 370.48 563.495 372.222 563.495 372.79 563.952 372.79 564.408 372.79 563.952 373.939 565.298 375.1 565.298 376.249 564.408 377.374 565.298 379.121 564.841 380.851 566.193 383.711 565.754 387.163 567.077 390.036 567.071 392.34 567.978 394.643 568.879 396.385Z" stroke="#FFFFFF" stroke-width="20" stroke-linecap="round" stroke-linejoin="round" stroke-miterlimit="10" fill="#FFFFFF" fill-rule="evenodd"></path><path d="M337.937 417.634C337.937 417.634 340.272 419.167 340.894 420.268 341.522 421.38 342.749 422.777 343.62 423.121 344.835 423.612 346.067 424.31 346.067 424.31L346.849 425.914 348.799 427.72C350.862 428.341 351.277 427.116 352.853 429.282 353.534 429.282 354.228 429.282 354.228 429.886L354.921 429.282C355.603 430.495 356.99 431.099 357.683 431.715 359.751 431.715 361.517 432.472 362.921 433.674 363.591 433.674 363.698 435.076 363.698 434.479 365.808 435.041 367.224 436.443 368.617 435.201 369.292 435.201 369.985 435.201 369.985 435.816L370.649 435.201C372.042 434.609 372.35 436.243 373.725 435.639 374.43 435.639 374.43 436.243 374.43 436.858 375.094 436.858 375.094 436.858 375.787 436.858 377.168 438.089 383.035 436.461 384.422 437.704 392.214 438.693 404.92 436.888 404.92 436.888 404.986 435.698 406.894 436.977 406.959 435.805L407.599 436.402C410.194 437.13 412.95 434.141 415.54 435.42 416.233 434.881 416.233 434.881 416.921 434.319 418.242 433.792 420.139 436.225 421.525 434.544 421.49 435.13 422.148 435.159 422.8 435.183 422.847 434.591 422.847 434.591 422.853 434.017 424.891 432.946 427.386 433.212 428.886 431.602 429.555 431.667 430.847 431.785 431.511 431.874 432.222 431.359 432.222 431.359 432.951 430.833 436.359 430.022 439.339 427.334 443.203 426.453 443.813 425.813 445.135 425.695 445.686 424.458 446.315 424.387 446.99 424.334 447.66 424.305 448.246 423.671 448.863 423.002 449.438 422.386 451.476 422.772 453.242 420.013 455.186 419.723 455.092 419.161 455.003 418.557 455.637 418.462L456.389 418.948C457.61 418.137 457.61 418.137 458.054 416.894 460.087 417.16 461.195 414.657 462.298 413.295 462.955 413.213 462.955 413.213 463.601 413.124 464.152 412.437 464.152 412.437 464.71 411.757 465.361 411.656 465.361 411.656 466.037 411.532 467.779 410.07 468.787 408.146 471.287 407.163 471.198 406.589 471.074 406.01 471.744 405.879 473.148 406.264 472.846 404.524 473.385 403.855 473.955 403.459 475.69 402.227 476.141 402.784 476.046 403.755 477.836 400.298 477.753 401.239 478.215 401.813 480.473 395.936 481.001 395.534L475.525 381.245C473.492 384.092 466.316 393.474 462.464 394.35 462.523 397.344 459.169 397.492 456.881 399.226 457.005 399.777 457.165 400.363 456.508 400.511 454.581 400.949 453.752 403.091 452.472 403.364 452.335 402.801 451.684 402.949 451.038 403.097 450.528 403.814 449.266 404.098 448.892 405.4 446.96 405.832 446.392 407.738 445.277 409.064L444.536 408.608C442.226 410.727 438.86 410.508 437.265 413.124 433.538 414.87 430.362 415.473 426.497 416.917 425.851 416.965 425.194 417.006 425.146 416.397 424.572 417.616 421.875 416.64 421.306 417.841 417.324 418.107 414.011 417.717 410.117 418.581 410.017 417.427 408.115 418.705 408.049 417.563 404.813 418.948 401.53 417.119 398.23 417.119 397.572 416.515 396.256 416.515 395.592 415.367 392.303 415.947 390.318 415.367 388.333 413.603 386.354 413.603 385.026 411.828 383.059 411.259 383.059 410.667 383.059 410.667 383.059 410.105 382.406 409.507 382.406 409.507 381.725 408.939 381.725 407.181 383.704 407.181 385.026 406.596 386.354 404.849 389.915 405.252 391.225 403.494 391.225 402.902 393.003 401.765 393.003 401.186 393.648 400.014 394.111 398.895 394.769 398.895 396.754 397.729 395.456 396.362 398.099 395.794 398.099 395.196 400.173 393.764 399.492 393.166 402.135 391.42 402.081 390.408 402.751 386.892 404.055 385.164 406.01 383.24 406.01 380.884 406.662 380.31 405.857 377.765 407.184 377.173 407.83 373.095 406.141 370.905 406.141 366.822 405.472 366.236 405.472 366.236 404.813 365.661 404.813 363.885 403.492 362.732 404.162 360.98 402.188 359.21 402.674 358.653 400.689 356.907L399.557 355.718C398.899 355.718 398.899 355.718 398.23 355.718 397.572 354.54 395.592 353.972 395.592 352.776 392.955 352.202 390.318 350.456 387.699 349.272L387.023 349.87 386.354 349.272C385.708 349.87 385.708 349.87 385.026 350.456 385.026 348.674 383.059 350.456 382.406 349.272 381.073 349.272 379.752 348.674 378.448 349.87 374.489 348.681 370.211 350.734 366.246 349 366.246 350.166 363.609 348.402 363.609 350.166 362.294 350.74 360.373 350.699 359.733 351.249 359.075 351.249 358.394 351.249 357.742 351.249 355.745 353.013 354.103 355.073 350.163 355.073 348.841 355.073 350.163 356.813 348.841 356.813 348.177 356.813 348.177 356.813 347.525 356.813 344.218 359.743 341.593 363.264 337.634 365.596 337.634 366.188 336.301 366.751 336.971 367.934 336.971 368.538 336.301 368.538 335.632 368.538 335.632 369.68 334.992 370.272 334.322 370.864 334.322 371.456 334.322 372.036 334.985 372.036 334.985 372.628 333.978 374.107 333.326 374.107 332.668 376.451 332.668 378.813 330.683 379.961 330.683 384.643 329.308 386.892 329 392.035 329.462 394.752 329.688 398.883 329.688 401.316 331.75 402.559 329.184 402.487 330.553 404.317 331.234 404.317 330.873 405.365 330.873 405.986 331.554 407.205 333.753 408.081 333.042 409.318 333.042 409.927 334.191 410.472 334.873 410.472 335.572 411.685 333.865 413.041 335.252 413.651 335.252 414.254 337.445 413.781 336.745 414.994L337.937 417.634ZM380.931 379.535C379.604 380.15 380.931 381.388 379.604 382.003L380.273 382.612C379.764 387.637 376.617 394.468 369.606 399.315 368.955 399.315 368.273 399.315 368.273 398.699 368.273 397.445 366.916 395.604 367.615 394.367 367.615 393.758 366.909 393.758 366.264 393.758 367.615 392.515 365.363 391.278 366.068 389.413 365.363 389.413 365.363 388.809 365.363 388.182 367.378 386.945 365.742 383.772 367.751 382.553L367.094 381.92C367.751 380.695 368.794 378.777 370.092 377.517 370.092 376.918 370.092 376.918 370.092 376.285 372.771 373.817 376.255 372.722 379.598 371.527 380.267 371.527 380.925 371.527 380.925 372.107 382.934 374.611 381.601 377.055 380.931 379.535Z" stroke="#FFFFFF" stroke-width="20" stroke-linecap="round" stroke-linejoin="round" stroke-miterlimit="10" fill="#FFFFFF" fill-rule="evenodd"></path><path d="M495.044 373.964C495.121 374.782 495.216 375.581 495.3 376.368 499.836 380.737 498.95 388.184 501.964 393.513 500.526 395.366 501.542 397.675 500.924 399.398 501.81 400.096 501.81 400.096 502.696 400.795 501.495 405.045 504.361 408.769 503.963 412.913 503.219 413.818 503.219 413.818 502.499 414.73 502.577 415.529 502.678 416.335 503.474 416.252L502.761 417.146 503.635 417.862 502.91 418.774C503.707 418.649 503.802 419.461 503.879 420.301 502.44 422.077 505.092 424.22 502.845 426.115 503.742 426.825 503.808 427.636 503.885 428.459 501.644 430.365 503.017 433.847 501.435 436.351L502.268 437.114 501.483 437.99 500.633 437.203C499.824 437.245 499.854 438.067 499.878 438.86 500.716 440.442 502.375 441.969 500.793 443.692L501.625 444.438C499.224 446.196 498.51 448.262 497.815 450.624 497.071 451.435 497.071 451.435 496.328 452.252 497.119 453.004 497.149 453.755 497.149 454.549 495.68 456.177 494.943 457.769 493.48 459.403 493.48 460.173 494.295 461.706 492.784 462.535L493.575 463.287C492.82 464.892 492.142 467.242 491.429 468.858 492.184 468.805 492.19 469.58 492.19 470.35 489.96 472.031 487.386 473.807 488.218 476.868 486.774 479.277 484.888 480.088 483.414 482.509 484.217 484.001 480.768 484.718 480.804 486.269 480.822 487.814 478.556 487.18 479.353 488.666L480.126 489.418C479.371 489.484 479.371 489.484 478.646 489.513 477.885 491.105 477.885 491.105 476.416 491.946 476.422 492.722 476.452 493.521 475.679 493.55 474.341 494.563 473.669 495.765 472.219 497.399 472.991 498.15 469.799 499.755 470.53 499.802 469.698 500.513 468.889 501.276 468.734 502.804 467.991 502.768 467.23 502.75 467.153 503.496L467.2 504.503C466.665 505.047 466.528 505.036 465.417 505.29 459.525 511.997 450.909 514.632 444.987 521.298 443.388 522.026 441.824 522.713 440.249 523.423 438.643 524.104 439.185 526.449 437.775 525.59 437.853 524.826 435.748 526.265 434.992 526.235 433.322 527.71 430.866 526.614 429.326 526.531 429.398 525.774 428.5 525.94 427.81 525.14L426.978 525.868C426.312 525.045 424.594 523.483 423.833 523.429 423.161 522.642 424.654 521.819 423.898 521.79L424.748 521.038C424.814 520.286 423.547 520.096 422.798 520.055 421.431 518.433 424.338 519.658 423.726 518.036L420.771 517.805C420.069 516.272 418.619 516.236 418 514.644 418.137 513.134 421.454 513.164 421.591 511.589 423.101 511.684 422.655 511.447 424.255 510.725L423.69 509.624C425.301 508.884 425.052 507.575 425.795 507.605 425.759 508.38 426.383 507.486 427.12 507.534 427.882 507.575 428.625 507.605 428.726 506.841 428.785 506.06 428.851 505.284 429.689 504.544 430.432 504.609 430.432 504.609 431.2 504.639 434.481 501.679 432.383 503.65 435.766 499.927 435.825 499.157 435.825 499.157 435.902 498.387 436.717 497.653 436.854 496.114 438.459 495.404 438.382 496.185 438.281 496.949 439.077 496.996 441.462 495.552 440.023 494.705 439.422 493.148 440.249 492.378 440.249 492.378 441.081 491.68 440.992 492.455 442.336 491.852 441.592 491.81 441.521 492.586 442.383 490.01 443.138 490.046 444.999 487.18 443.643 490.561 446.42 485.25 446.997 484.664 448.418 484.138 448.548 483.747 448.388 483.676 450.314 482.995 449.631 482.184 449.524 481.568 449.815 481.314 448.239 482.03 449.143 480.514 451.783 478.241 451.92 476.684 454.114 477.578 452.366 474.091 453.876 474.156 453.055 474.873 452.294 473.393 452.318 474.168L454.827 474.097C456.498 472.629 452.508 472.694 453.995 471.037 453.977 470.273 453.751 469.835 453.008 469.876 452.966 469.101 452.794 468.467 453.549 468.426L454.322 469.166C455.053 468.348 453.603 465.738 455.089 464.88 455.077 464.104 455.077 463.317 455.053 462.529 457.289 460.883 456.284 461.155 456.974 458.782L456.213 458.053C456.224 458.817 457.836 457.331 457.081 457.367 457.057 456.562 457.057 456.562 457.057 455.786 458.55 454.934 459.59 449.771 459.548 448.215 459.584 449.777 457.788 444.662 459.311 445.373 461.498 442.117 460.006 437.819 460.351 433.858 458.763 433.278 461.576 432.147 460.702 430.715 459.958 430.786 459.203 430.886 459.108 430.111 459.792 429.247 459.792 429.247 460.434 428.352 460.369 427.601 460.291 426.825 459.548 426.926 459.477 426.15 459.417 425.357 460.155 425.286 460.042 424.511 459.988 423.747 459.233 423.836 459.899 422.959 459.899 422.959 460.583 422.089 460.5 421.32 459.751 421.408 459.007 421.527 459.447 418.306 456.224 415.997 457.396 412.741 456.665 412.818 456.581 412.061 456.504 411.267 458.513 408.668 455.767 405.543 457.022 403.032 455.458 402.458 456.058 400.8 455.88 399.243 456.558 398.385 454.619 397.616 454.536 396.852 452.633 393.169 453.18 390.239 451.955 386.314 450.475 387.652 449.387 375.498 448.091 370.78 446.141 367.743 447.431 364.315 446.278 361.177 447.08 361.083 447.901 360.987 447.829 360.183 446.765 357.862 449.113 356.737 449.666 354.233 451.289 354.032 452.8 353.013 454.601 354.428 456.13 353.44 455.184 351.918 455.083 351.113 458.306 350.728 460.738 350.397 463.978 350 464.061 350.811 464.126 351.622 464.947 351.522 467.361 351.208 468.348 352.706 470.762 352.415 470.851 353.238 470.917 354.044 471.742 353.955 473.336 353.742 474.228 354.44 475.132 355.162 475.94 355.056 476.755 354.955 476.66 354.162L477.551 354.837 478.283 353.955C479.163 354.665 479.953 354.565 480.768 354.44 481.666 355.162 481.91 357.572 483.461 356.589 487.338 362.651 491.982 367.802 495.044 373.964Z" stroke="#FFFFFF" stroke-width="20" stroke-linecap="round" stroke-linejoin="round" stroke-miterlimit="10" fill="#FFFFFF" fill-rule="evenodd"></path><path d="M139.637 388.442C139.371 387.13 137.494 386.754 136.737 386.736 135.944 386.724 134.493 388.364 133.754 387.076 133.754 387.076 132.475 389.169 130.918 390.279 129.871 391.036 128.267 390.917 128.267 390.917 127.882 392.909 127.669 393.13 129.409 397.794 130.196 397.943 131.013 402.404 131.877 402.614 131.511 400.895 134.162 406.305 135.02 407.063 135.565 407.206 135.565 407.206 136.109 407.349 136.654 407.492 136.388 407.999 136.145 408.47L138.56 410.188C138.803 410.839 139.318 411.035 138.75 411.966 140.596 412.091 141.762 413.206 143.307 413.886 143.84 414.119 143.509 414.56 143.207 415.025 143.71 415.234 144.219 415.467 144.55 415.025 145.882 415.025 144.929 416.391 145.131 417.041L145.959 416.827C146.149 417.494 147.178 417.948 147.178 417.948 148.789 420.411 156.632 423.417 158.585 425.654L159.354 425.278C159.97 426.56 163.421 426.799 163.421 428.469L164.143 428.028C164.51 428.636 169.695 429.626 171.134 430.402 171.856 429.948 170.826 429.179 171.613 428.791 172.472 429.519 174.265 431.171 175.094 431.94 175.094 431.94 177.337 432.108 178.935 432.483 180.948 434.63 185.08 433.306 187.542 434.409 187.867 435.048 188.383 435.185 188.903 435.304L189.691 434.91 190.005 435.531C191.531 434.744 192.366 435.501 193.384 434.619L193.698 435.25 194.455 434.839C194.764 435.471 194.764 435.471 195.059 436.127 197.202 436.599 199.144 437.607 201.446 436.426 201.742 437.058 202.299 437.183 202.814 437.296 203.577 436.897 203.577 436.897 204.37 436.527 205.974 436.885 206.27 437.517 208.135 437.38L208.425 438C210.74 436.843 212.344 437.177 214.48 437.666 214.948 436.652 216.09 438.048 216.552 437.01L216.854 437.654C218.636 436.342 221.383 437.028 223.229 436.951L223.513 437.6C224.3 437.225 223.987 437.654 223.987 437.654 225.544 436.927 229.32 436.867 230.332 436.014 232.481 436.575 232.398 436.981 235.316 436.592 235.914 436.73 237.116 436.998 237.672 437.183 240.058 435.597 242.123 435.644 244.165 436.819 246.521 436.366 250.28 434.511 252.334 433.419 252.92 433.58 253.53 433.766 254.116 433.939 255.004 433.61 255.584 433.807 256.188 432.817 258.828 431.905 260.734 430.98 263.113 429.37 263.385 430.044 264.877 428.779 265.167 429.411 265.463 428.946 265.463 428.946 265.765 428.451 266.931 428.815 267.819 427.336 268.991 427.694 269.305 427.223 269.305 427.223 269.595 426.734 271.382 426.113 270.678 425.654 272.436 425.057 273.957 424.014 276.088 420.435 279.556 418.902 279.474 417.751 281.759 417.125 282.268 416.117 282.516 415.61 283.126 415.741 283.718 415.854L283.38 415.222C284.221 414.834 283.978 413.164 284.777 413.904 285.002 413.397 286.009 412.061 285.517 411.966 287.205 410.629 287.181 406.281 289.673 405.733 289.892 405.196 289.892 405.196 290.105 404.707 291.094 403.371 290.708 400.89 291.271 400.562 291.466 400.066 291.194 399.702 291.715 399.834 292.348 397.83 292.822 394.788 293.408 392.092 292.904 391.978 293.141 391.472 293.354 390.959 293.852 391.072 294.071 390.559 294.302 390.058 293.798 389.933 294.017 389.402 294.231 388.901L294.953 388.519C293.934 388.286 295.089 386.897 294.071 386.665L294.769 386.253C293.905 383.802 295.154 381.315 294.302 378.875L294.958 378.475C293.781 377.086 293.982 375.612 295 374.163 294.639 373.525 294.822 373.012 295 372.481 293.627 371.616 295.296 370.698 294.444 369.928 294.941 368.389 293.23 366.863 294.26 365.413 293.586 364.137 293.449 363.6 292.715 362.359 292.857 361.811 293.005 361.28 293.159 360.749 292.65 360.642 292.123 360.535 292.248 360.004 293.07 359.043 292.171 358.322 292.478 357.254 291.443 357.057 291.993 356.156 291.638 355.542 291.306 352.685 290.56 350.532 288.879 348.099 289.578 347.049 288.14 342.892 288.205 341.586L287.205 341.048C286.772 339.718 286.299 339.033 285.304 338.335 285.351 337.684 285.351 337.684 285.387 337.034 284.872 336.999 284.357 336.975 284.404 336.313 284.434 335.681 284.434 335.681 284.47 335.012L283.895 335.633C282.937 334.935 282.51 333.629 282.582 332.293 280.676 329.591 279.953 327.647 277.242 323.716 276.176 324.366 277.195 321.682 275.916 322.29 274.454 318.956 273.496 318.145 271.335 316.099 271.418 315.455 271.418 315.455 271.459 314.787 270.861 314.769 270.861 314.769 270.275 314.74 269.672 314.74 269.748 314.072 269.814 313.422 266.416 311.322 254.37 309.628 252.524 306.288 251.47 306.229 250.452 305.549 249.83 306.867 249.357 306.175 249.357 306.175 248.883 305.501 246.066 307.373 243.704 304.016 241.099 303.282L240.531 303.902C239.619 301.916 237.879 303.83 236.808 303.818 236.358 303.133 235.813 303.097 235.292 303.085 232.528 304.314 229.989 302.924 227.615 306.151L227.13 305.471 233.132 316.755C232.996 317.37 234.677 324.396 236.275 327.921 236.82 328.022 237.512 329.293 237.891 330.026 237.749 330.635 237.749 330.635 237.625 331.273 238.43 332.734 239.229 334.183 240.022 335.669 239.477 335.543 239.341 336.152 239.205 336.79 239.844 338.865 239.827 341.114 240.448 343.13 241.295 343.882 240.312 344.335 241.235 345.283 241.324 345.379 240.673 346.601 240.803 346.661 240.43 347.687 241.07 348.909 241.07 348.909 241.377 351.158 241.259 349.375 242.816 350.985 241.377 352.715 243.792 355.542 242.354 357.254 243.129 358.065 243.154 356.92 243.408 357.558 243.147 358.017 243.147 358.017 242.899 358.483 242.656 358.953 243.142 359.127 243.645 359.33 244.142 360.594 243.236 361.345 243.899 362.568 244.402 362.694 243.94 364.25 244.444 364.364 244.603 365.515 246.036 365.855 244.662 366.654 244.165 366.523 244.444 368.813 243.923 370.346 244.249 370.954 243.928 373.579 243.763 374.103 244.278 374.222 244.627 373.596 244.444 374.103 244.266 374.611 244.266 374.611 244.089 375.112 244.603 375.225 244.551 376.161 244.355 376.662 244.331 378.291 243.295 379.125 242.774 380.628 242.182 383.921 243.887 386.593 241.668 387.768 242.467 388.489 241.484 389.366 241.259 389.891 240.525 390.237 240.721 391.836 240.051 392.235 239.223 394.251 238.826 394.132 238.004 396.142 236.66 396.929 236.435 397.8 235.103 398.587 234.89 399.083 234.89 399.083 234.683 399.577 234.488 400.084 234.02 399.959 233.564 399.87 232.694 400.776 229.633 402.19 229.208 403.156L229.468 403.782C227.651 404.456 227.124 404.683 225.106 405.858 223.111 407.057 221.625 407.069 219.547 408.142 217.724 407.629 216.174 408.983 214.356 408.465 213.652 408.84 212.965 409.222 212.261 409.544 211.343 409.294 209.982 410.015 209.289 409.276 208.384 409.043 208.573 410.731 207.679 410.499 207.229 410.361 207.229 410.361 206.774 410.23L206.56 409.616C205.163 410.349 204.045 409.472 202.654 410.182L202.435 409.592C201.049 410.301 199.895 409.508 199.014 410.421 197.847 409.616 195.314 409.592 193.266 409.746 193.449 409.234 192.999 409.144 192.526 409.073L191.857 409.502C192.064 408.983 187.944 409.276 187.489 409.222L186.547 409.043 186.263 408.435 185.612 408.852C184.866 408.19 179.942 407.689 178.769 406.395 177.829 407.289 176.934 406.896 175.869 406.675 171.471 406.395 166.108 404.438 165.564 404.319L165.244 403.669C163.717 404.45 161.178 403.621 160.515 402.381 159.97 402.255 159.236 402.19 158.703 402.023 158.135 400.711 154.661 400.961 154.229 399.655 154.229 399.655 152.488 398.438 151.748 397.543 150.612 398.247 147.764 394.812 147.232 394.585L145.326 394.514 144.645 392.444 142.076 390.506C141.022 388.561 139.975 390.088 139.637 388.442Z" stroke="#FFFFFF" stroke-width="20" stroke-linecap="round" stroke-linejoin="round" stroke-miterlimit="10" fill="#FFFFFF" fill-rule="evenodd"></path><path d="M180.048 313.904C180.774 313.923 181.493 313.964 182.171 314.013 185.591 317.558 192.334 316.528 196.788 318.801 198.573 317.498 200.511 318.276 202.134 317.673 202.676 318.384 202.676 318.384 203.211 319.096 207.13 317.914 209.235 319.904 212.963 319.633 213.885 319.048 213.885 319.048 214.801 318.439 215.497 318.529 216.187 318.638 215.991 319.277L216.9 318.686 217.4 319.428 218.309 318.855C218.09 319.512 218.797 319.614 219.499 319.657 221.307 318.517 222.419 320.067 224.5 318.319 224.964 319.096 225.66 319.199 226.361 319.313 228.437 317.553 229.174 319.397 231.714 318.559L232.154 319.349 233.075 318.843 232.665 318.035C232.909 317.384 233.592 317.553 234.277 317.697 235.4 318.662 236.168 320.097 238.101 319.199L238.487 320.001C239.688 319.144 230.417 318.722 244.88 318.258 245.807 317.842 245.807 317.842 246.729 317.414 247.092 318.192 247.728 318.379 248.382 318.553 250.226 317.709 251.778 317.468 253.633 316.636 254.281 316.793 255.286 317.763 256.488 316.757L256.85 317.504C258.432 317.299 260.633 317.209 262.178 316.998 261.929 317.589 261.138 316.16 261.75 316.443 263.98 315.303 266.383 313.959 268.47 315.635 270.938 315.363 272.02 314.103 274.506 313.916 275.321 315.104 277.313 312.771 278.497 313.422 279.662 314.019 279.703 312.354 280.477 313.56L280.685 314.417C281.054 313.916 281.054 313.916 281.428 313.362 282.95 313.482 282.95 313.482 284.241 312.753 284.818 313.09 285.395 313.446 285.769 312.903 287.131 312.349 288.338 312.349 290.193 311.945 290.407 312.843 291.74 311.528 291.395 312.071 292.31 311.842 293.268 311.667 294.41 312.342 294.766 311.806 295.147 311.263 295.724 311.607L296.402 312.125C297.056 312.023 297.116 311.914 297.877 311.305 305.595 310.606 309.895 306.789 317.561 306.789 318.904 306.162 320.266 305.559 321.598 304.938 322.931 304.316 324.149 305.987 324.405 304.582 323.864 304.196 325.981 303.654 326.386 303.159 328.264 302.954 329.43 299.644 330.197 298.582 329.638 298.202 330.227 297.714 330.067 296.797L330.988 296.647C330.804 295.754 330.632 291.998 331 291.461 330.833 290.58 329.495 291.147 329.858 290.605L329.525 289.977C328.978 289.598 329.692 288.645 330.067 288.138 329.704 286.323 328.086 288.368 327.325 287.083L328.734 284.972C328.086 283.688 325.237 282.935 324.137 282.175 323.376 283.254 323.436 282.82 322.116 283.501L321.669 282.5C320.338 283.218 319.564 282.355 319.19 282.868 319.737 283.224 318.821 283.181 318.452 283.694 318.054 284.231 317.691 284.767 317.132 284.375 316.573 284.014 316.014 283.646 315.086 283.803 314.706 284.358 314.706 284.358 314.337 284.852 310.609 285.491 302.188 285.702 301.344 284.538 300.41 284.762 300.41 284.762 299.488 285.003 300.089 285.316 299.001 286.016 299.358 285.449 299.952 285.775 297.663 285.135 297.318 285.708 294.338 285.678 287.779 286.359 289.064 285.581 287.553 285.509 284.61 286.317 283.438 285.696 282.998 287.662 280.899 284.587 280.263 285.696 281.19 285.449 279.091 285.316 279.698 285.6L279.769 286.378C277.902 286.956 277.789 285.19 275.934 285.865 275.303 285.6 275.035 285.28 275.339 284.731 274.714 284.496 274.286 284.122 273.989 284.719L274.286 285.521C273.358 285.871 271.794 283.96 270.569 284.84 269.939 284.593 269.344 284.339 268.708 284.092 266.573 285.316 264.272 285.256 262.054 285.437L261.632 284.683C262.274 284.822 260.555 285.871 260.805 285.262 260.145 285.111 260.145 285.111 259.484 284.979 258.355 286.064 253.669 286.028 252.36 285.714 253.674 286.028 249.714 283.411 249.958 284.767 246.64 286.07 242.845 284.117 239.326 284.086 239.111 282.711 237.63 284.979 236.512 284.134 236.733 283.508 236.947 282.887 236.298 282.76 235.418 283.26 234.77 283.049 233.896 283.58 233.242 283.508 232.546 283.417 232.766 282.79 232.088 282.711 231.404 282.633 231.214 283.224 230.548 283.14 229.87 283.049 230.066 282.446 229.21 282.952 228.324 283.634 227.48 284.183 226.813 284.141 226.98 283.508 227.146 282.88 224.256 283.29 222.615 280.649 219.564 281.656 219.725 281.059 219.077 280.999 218.369 280.933 215.836 282.639 212.238 280.788 209.889 281.994 209.491 280.728 207.974 281.342 206.613 281.33 205.786 281.934 205.25 280.384 204.585 280.372 201.444 279.045 198.78 279.702 195.391 278.949 196.693 277.628 185.959 277.574 181.844 276.826 179.275 275.421 176.117 276.736 173.424 276 173.269 276.669 173.121 277.363 172.407 277.351 170.42 276.633 169.237 278.653 166.96 279.305 166.656 280.655 165.2 281.3 165.598 282.464 164.593 283.809 164.462 284.038 163.748 284.02 163.148 286.733 162.69 286.45 162 289.139 162.714 289.211 163.427 289.223 163.249 289.893 162.714 291.895 163.962 292.673 163.427 294.687 164.135 294.729 164.873 294.765 164.67 295.435 164.337 296.791 164.866 297.485 165.408 298.202 165.223 298.871 165.05 299.547 164.343 299.517L164.866 300.222 163.986 300.85C164.534 301.567 164.361 302.23 164.176 302.9 164.711 303.599 166.835 303.726 165.8 305.034 170.771 308.013 174.887 311.625 180.048 313.904Z" stroke="#FFFFFF" stroke-width="20" stroke-linecap="round" stroke-linejoin="round" stroke-miterlimit="10" fill="#FFFFFF" fill-rule="evenodd"></path><path d="M484.053 247.755C483.64 247.413 483.204 247.148 482.672 247.072 480.575 246.648 478.496 248.137 475.318 250.634L472.862 252.448C464.199 256.988 457.585 278.304 456.115 287.059 455.853 287.189 455.655 287.313 455.195 287.542 449.86 278.504 440.151 270.089 430 268.818 434.021 283.962 447.553 329.721 465.561 325.758 474.714 323.738 493.803 285.8 494.001 264.884 494.001 264.607 494.001 264.36 494.001 264.112 493.857 253.042 488.671 249.098 484.053 247.755Z" fill="#F58220" fill-rule="evenodd"></path><path d="M604.489 482.201C582.107 483.144 574.68 481.931 552.748 489.234 549.68 490.177 547.021 492.249 544.552 495.084 544.907 499.763 542.141 507.181 546.441 508.934 546.666 508.965 546.642 509.667 546.855 510.052 548.123 511.343 549.438 511.529 550.717 513.181 551.546 514.364 552.227 513.055 553.092 513.547 553.501 513.968 553.714 514.712 554.146 514.79 556.296 515.818 558.28 515.415 560.418 516.472 561.502 517.355 562.592 517.169 563.67 517.343 564.321 517.084 565.168 518.634 565.388 519.025 569.468 520.754 573.217 519.199 577.346 519.133 589.766 518.941 587.426 517.704 599.84 517.499 610.299 517.349 620.475 518.965 630.922 518.803 636.578 518.61 642.732 518.803 648.383 518.406 658.38 517.805 668.401 519.373 678.417 519.493 683.427 519.373 689.243 521.361 694.289 521.739 699.738 521.739 704.885 520.358 710.417 521.463 712.14 521.608 713.894 521.343 715.67 522.178 717.27 523.013 719.081 523.83 720.586 523.956 725.425 524.31 729.66 522.478 734.327 520.695 737.105 519.848 739.9 519.361 742.423 517.752 743.696 517.157 744.887 515.115 745.378 513.025 746.682 509.234 747.724 505.06 746.356 500.742 746.113 500.724 745.467 501.042 745.242 500.652 744.757 499.931 744.881 498.171 744.188 498.111 742.175 497.288 740.22 497.12 738.218 496.646 735.559 496.075 732.864 494.82 730.211 494.303 717.82 491.24 646.937 480.399 604.489 482.201Z" fill="#00AA7E" fill-rule="evenodd"></path><path d="M387.606 490.229C389.866 490.727 392.43 490.686 393.657 492.177 394.874 493.348 392.453 495.284 392.595 496.841 392.548 500.542 393.943 503.887 393.895 507.594 393.966 508.212 393.652 508.812 392.952 509.477 392.317 510.404 391.29 511.384 390.246 512.032 387.119 514.022 383.014 513.25 379.4 514.301 374.772 515.721 369.658 516.232 364.947 516.731 356.213 517.628 347.954 515.787 339.113 515.519 335.773 515.335 332.153 515.787 329.317 516.826 325.354 517.883 321.313 517.729 317.249 517.587 296.251 516.826 275.639 516.387 254.718 516.547 251.058 516.69 247.047 517.165 243.38 517.295 226.571 518.234 209.798 517.943 192.977 518.389 187.103 518.537 181.247 518.704 175.361 518.549 172.062 518.626 168.763 518.697 165.845 518.769 153.42 519.405 140.658 519.993 128.168 519.476 123.41 519.518 118.295 519.571 113.513 519.606 99.6231 520.343 85.4661 522.631 71.4817 521.834 61.1874 521.288 51.5223 518.929 42.0764 514.076 35.6566 510.743 30.631 506.156 27 500.625 29.397 497.506 33.0161 496.265 36.9915 495.302 46.3483 492.748 55.0642 491.126 64.4864 489.527 72.4727 488.185 79.7764 487.532 87.4482 486.842 188.1 477.83 300.856 481.186 344.839 484.134 359.631 485.132 373.39 487.08 387.606 490.229Z" fill="#007AC1" fill-rule="evenodd"></path><path d="M568.879 396.385C568.879 396.953 568.879 396.953 568.879 397.527 569.769 399.814 571.554 400.4 573.339 402.111 575.159 402.111 577.388 402.111 579.173 402.111 579.173 400.963 580.519 402.111 580.519 400.963 581.871 400.963 583.846 400.4 584.806 398.682 585.299 398.682 585.299 398.682 585.755 398.682 586.727 396.947 588.162 395.775 590.083 395.775 592.479 392.914 594.869 390.042 597.276 387.175 597.276 386.015 597.751 384.878 598.699 384.285 600.152 379.133 601.095 373.388 603.508 368.195 603.508 366.489 604.457 364.185 603.995 362.456 604.457 362.456 604.932 362.456 604.932 361.888 604.457 359.56 605.88 358.423 606.853 357.286 607.813 357.286 608.75 357.286 609.248 356.131 609.248 355.556 609.248 355.556 609.248 355 611.632 355 614.342 356.724 616.227 358.997 617.496 358.997 618.119 358.997 619.388 358.997 619.388 360.176 620.017 360.176 620.657 360.751 623.171 360.751 628.716 360.176 631.265 361.307 631.265 363.031 633.785 362.462 634.414 364.191 635.031 365.909 635.031 367.626 636.311 369.368 636.311 369.93 636.311 370.493 635.665 371.097 636.934 372.802 638.179 375.68 636.311 377.392 636.928 379.702 636.311 382.58 637.562 384.89 636.311 386.021 636.934 387.762 636.934 388.911 638.179 391.197 638.179 394.081 638.837 396.959 641.339 399.819 640.723 403.284 642.626 406.151 642.626 407.305 642.626 408.448 642.626 409.567 643.872 409.567 642.626 411.32 643.872 411.32 644.5 414.785 642.626 418.8 642.626 422.265 641.98 422.815 641.339 423.407 640.729 423.988 640.729 424.539 640.729 424.539 640.729 425.125 640.082 425.125 639.466 425.125 639.466 424.533 638.179 426.268 636.317 427.417 635.036 429.141 633.785 428.566 633.157 429.715 632.516 429.715 631.265 429.715 632.516 431.438 631.265 431.438 629.984 431.438 628.716 432.012 628.093 432.587 626.818 433.161 622.537 432.007 621.286 433.161L620.663 432.587C620.029 433.161 619.394 433.736 618.125 433.736 618.125 433.155 618.125 432.587 617.502 432.587 616.862 434.304 614.099 435.471 612.456 434.891 611.905 433.742 612.124 432.901 610.689 432.368 610.215 428.743 610.215 425.616 608.294 422.507 608.756 422.507 608.756 421.992 608.756 421.477 608.294 419.914 607.345 418.356 607.345 416.804 605.886 414.708 605.412 411.623 603.514 410.065 604 409.532 602.536 409.017 603.01 408.495 602.079 407.477 601.593 406.944 600.621 405.907 599.684 405.907 599.684 406.435 599.197 406.944 598.711 409.532 596.316 411.616 595.83 414.21L595.367 413.695C594.881 415.247 593.446 416.283 593.446 417.853 592.497 418.35 591.999 419.914 591.074 420.429 591.074 420.961 591.074 420.961 591.074 421.477 587.706 424.574 585.874 429.608 581.859 431.776 580.857 433.949 578.319 434.381 577.323 436.804 575.805 436.804 573.433 437.402 571.566 438 570.302 437.396 568.429 436.17 567.177 437.396 567.177 436.798 566.531 436.798 565.926 436.798L565.31 437.396C564.047 436.17 562.191 437.396 560.305 436.798 556.522 433.753 552.146 432.552 547.775 430.141 546.501 430.141 547.775 428.323 546.501 428.323 545.872 428.323 545.273 428.323 544.639 427.731 544.639 425.907 545.273 424.693 543.382 423.491L544.01 422.886C544.01 422.294 543.382 422.294 542.771 422.294 542.137 418.652 540.263 415.626 539.652 412.019 538.982 411.409 538.982 411.409 538.389 410.805 538.389 408.981 537.773 407.193 537.115 405.973 536.491 403.562 538.674 401.537 537.458 399.221 537.458 398.676 537.458 398.078 538.075 397.522 537.458 394.638 538.075 392.908 538.674 390.036 538.075 390.036 538.075 389.479 538.075 388.893 539.267 386.613 539.267 384.28 539.267 381.993 539.842 380.27 541.033 378.559 541.632 376.817L541.033 376.249C542.226 375.1 541.632 373.383 543.435 372.222 543.435 371.641 543.435 371.085 542.836 371.085 542.836 369.918 544.028 369.356 544.615 368.769 545.214 367.614 547.526 363.101 548.961 362.225L548.505 361.544C549.543 360.057 552.235 359.447 554.346 359.252 555.952 359.11 559 360.674 559.896 361.165 560.572 362.527 559.937 363.593 560.821 365.322 561.283 365.322 561.283 365.322 561.722 365.322 561.722 365.897 561.722 365.897 561.722 366.477 561.722 367.051 562.161 367.051 562.6 367.051 563.051 368.769 563.958 370.48 563.495 372.222 563.495 372.79 563.952 372.79 564.408 372.79 563.952 373.939 565.298 375.1 565.298 376.249 564.408 377.374 565.298 379.121 564.841 380.851 566.193 383.711 565.754 387.163 567.077 390.036 567.071 392.34 567.978 394.643 568.879 396.385Z" fill-rule="evenodd"></path><path d="M337.937 417.634C337.937 417.634 340.272 419.167 340.894 420.268 341.522 421.38 342.749 422.777 343.62 423.121 344.835 423.612 346.067 424.31 346.067 424.31L346.849 425.914 348.799 427.72C350.862 428.341 351.277 427.116 352.853 429.282 353.534 429.282 354.228 429.282 354.228 429.886L354.921 429.282C355.603 430.495 356.99 431.099 357.683 431.715 359.751 431.715 361.517 432.472 362.921 433.674 363.591 433.674 363.698 435.076 363.698 434.479 365.808 435.041 367.224 436.443 368.617 435.201 369.292 435.201 369.985 435.201 369.985 435.816L370.649 435.201C372.042 434.609 372.35 436.243 373.725 435.639 374.43 435.639 374.43 436.243 374.43 436.858 375.094 436.858 375.094 436.858 375.787 436.858 377.168 438.089 383.035 436.461 384.422 437.704 392.214 438.693 404.92 436.888 404.92 436.888 404.986 435.698 406.894 436.977 406.959 435.805L407.599 436.402C410.194 437.13 412.95 434.141 415.54 435.42 416.233 434.881 416.233 434.881 416.921 434.319 418.242 433.792 420.139 436.225 421.525 434.544 421.49 435.13 422.148 435.159 422.8 435.183 422.847 434.591 422.847 434.591 422.853 434.017 424.891 432.946 427.386 433.212 428.886 431.602 429.555 431.667 430.847 431.785 431.511 431.874 432.222 431.359 432.222 431.359 432.951 430.833 436.359 430.022 439.339 427.334 443.203 426.453 443.813 425.813 445.135 425.695 445.686 424.458 446.315 424.387 446.99 424.334 447.66 424.305 448.246 423.671 448.863 423.002 449.438 422.386 451.476 422.772 453.242 420.013 455.186 419.723 455.092 419.161 455.003 418.557 455.637 418.462L456.389 418.948C457.61 418.137 457.61 418.137 458.054 416.894 460.087 417.16 461.195 414.657 462.298 413.295 462.955 413.213 462.955 413.213 463.601 413.124 464.152 412.437 464.152 412.437 464.71 411.757 465.361 411.656 465.361 411.656 466.037 411.532 467.779 410.07 468.787 408.146 471.287 407.163 471.198 406.589 471.074 406.01 471.744 405.879 473.148 406.264 472.846 404.524 473.385 403.855 473.955 403.459 475.69 402.227 476.141 402.784 476.046 403.755 477.836 400.298 477.753 401.239 478.215 401.813 480.473 395.936 481.001 395.534L475.525 381.245C473.492 384.092 466.316 393.474 462.464 394.35 462.523 397.344 459.169 397.492 456.881 399.226 457.005 399.777 457.165 400.363 456.508 400.511 454.581 400.949 453.752 403.091 452.472 403.364 452.335 402.801 451.684 402.949 451.038 403.097 450.528 403.814 449.266 404.098 448.892 405.4 446.96 405.832 446.392 407.738 445.277 409.064L444.536 408.608C442.226 410.727 438.86 410.508 437.265 413.124 433.538 414.87 430.362 415.473 426.497 416.917 425.851 416.965 425.194 417.006 425.146 416.397 424.572 417.616 421.875 416.64 421.306 417.841 417.324 418.107 414.011 417.717 410.117 418.581 410.017 417.427 408.115 418.705 408.049 417.563 404.813 418.948 401.53 417.119 398.23 417.119 397.572 416.515 396.256 416.515 395.592 415.367 392.303 415.947 390.318 415.367 388.333 413.603 386.354 413.603 385.026 411.828 383.059 411.259 383.059 410.667 383.059 410.667 383.059 410.105 382.406 409.507 382.406 409.507 381.725 408.939 381.725 407.181 383.704 407.181 385.026 406.596 386.354 404.849 389.915 405.252 391.225 403.494 391.225 402.902 393.003 401.765 393.003 401.186 393.648 400.014 394.111 398.895 394.769 398.895 396.754 397.729 395.456 396.362 398.099 395.794 398.099 395.196 400.173 393.764 399.492 393.166 402.135 391.42 402.081 390.408 402.751 386.892 404.055 385.164 406.01 383.24 406.01 380.884 406.662 380.31 405.857 377.765 407.184 377.173 407.83 373.095 406.141 370.905 406.141 366.822 405.472 366.236 405.472 366.236 404.813 365.661 404.813 363.885 403.492 362.732 404.162 360.98 402.188 359.21 402.674 358.653 400.689 356.907L399.557 355.718C398.899 355.718 398.899 355.718 398.23 355.718 397.572 354.54 395.592 353.972 395.592 352.776 392.955 352.202 390.318 350.456 387.699 349.272L387.023 349.87 386.354 349.272C385.708 349.87 385.708 349.87 385.026 350.456 385.026 348.674 383.059 350.456 382.406 349.272 381.073 349.272 379.752 348.674 378.448 349.87 374.489 348.681 370.211 350.734 366.246 349 366.246 350.166 363.609 348.402 363.609 350.166 362.294 350.74 360.373 350.699 359.733 351.249 359.075 351.249 358.394 351.249 357.742 351.249 355.745 353.013 354.103 355.073 350.163 355.073 348.841 355.073 350.163 356.813 348.841 356.813 348.177 356.813 348.177 356.813 347.525 356.813 344.218 359.743 341.593 363.264 337.634 365.596 337.634 366.188 336.301 366.751 336.971 367.934 336.971 368.538 336.301 368.538 335.632 368.538 335.632 369.68 334.992 370.272 334.322 370.864 334.322 371.456 334.322 372.036 334.985 372.036 334.985 372.628 333.978 374.107 333.326 374.107 332.668 376.451 332.668 378.813 330.683 379.961 330.683 384.643 329.308 386.892 329 392.035 329.462 394.752 329.688 398.883 329.688 401.316 331.75 402.559 329.184 402.487 330.553 404.317 331.234 404.317 330.873 405.365 330.873 405.986 331.554 407.205 333.753 408.081 333.042 409.318 333.042 409.927 334.191 410.472 334.873 410.472 335.572 411.685 333.865 413.041 335.252 413.651 335.252 414.254 337.445 413.781 336.745 414.994L337.937 417.634ZM380.931 379.535C379.604 380.15 380.931 381.388 379.604 382.003L380.273 382.612C379.764 387.637 376.617 394.468 369.606 399.315 368.955 399.315 368.273 399.315 368.273 398.699 368.273 397.445 366.916 395.604 367.615 394.367 367.615 393.758 366.909 393.758 366.264 393.758 367.615 392.515 365.363 391.278 366.068 389.413 365.363 389.413 365.363 388.809 365.363 388.182 367.378 386.945 365.742 383.772 367.751 382.553L367.094 381.92C367.751 380.695 368.794 378.777 370.092 377.517 370.092 376.918 370.092 376.918 370.092 376.285 372.771 373.817 376.255 372.722 379.598 371.527 380.267 371.527 380.925 371.527 380.925 372.107 382.934 374.611 381.601 377.055 380.931 379.535Z" fill-rule="evenodd"></path><path d="M495.044 373.964C495.121 374.782 495.216 375.581 495.3 376.368 499.836 380.737 498.95 388.184 501.964 393.513 500.526 395.366 501.542 397.675 500.924 399.398 501.81 400.096 501.81 400.096 502.696 400.795 501.495 405.045 504.361 408.769 503.963 412.913 503.219 413.818 503.219 413.818 502.499 414.73 502.577 415.529 502.678 416.335 503.474 416.252L502.761 417.146 503.635 417.862 502.91 418.774C503.707 418.649 503.802 419.461 503.879 420.301 502.44 422.077 505.092 424.22 502.845 426.115 503.742 426.825 503.808 427.636 503.885 428.459 501.644 430.365 503.017 433.847 501.435 436.351L502.268 437.114 501.483 437.99 500.633 437.203C499.824 437.245 499.854 438.067 499.878 438.86 500.716 440.442 502.375 441.969 500.793 443.692L501.625 444.438C499.224 446.196 498.51 448.262 497.815 450.624 497.071 451.435 497.071 451.435 496.328 452.252 497.119 453.004 497.149 453.755 497.149 454.549 495.68 456.177 494.943 457.769 493.48 459.403 493.48 460.173 494.295 461.706 492.784 462.535L493.575 463.287C492.82 464.892 492.142 467.242 491.429 468.858 492.184 468.805 492.19 469.58 492.19 470.35 489.96 472.031 487.386 473.807 488.218 476.868 486.774 479.277 484.888 480.088 483.414 482.509 484.217 484.001 480.768 484.718 480.804 486.269 480.822 487.814 478.556 487.18 479.353 488.666L480.126 489.418C479.371 489.484 479.371 489.484 478.646 489.513 477.885 491.105 477.885 491.105 476.416 491.946 476.422 492.722 476.452 493.521 475.679 493.55 474.341 494.563 473.669 495.765 472.219 497.399 472.991 498.15 469.799 499.755 470.53 499.802 469.698 500.513 468.889 501.276 468.734 502.804 467.991 502.768 467.23 502.75 467.153 503.496L467.2 504.503C466.665 505.047 466.528 505.036 465.417 505.29 459.525 511.997 450.909 514.632 444.987 521.298 443.388 522.026 441.824 522.713 440.249 523.423 438.643 524.104 439.185 526.449 437.775 525.59 437.853 524.826 435.748 526.265 434.992 526.235 433.322 527.71 430.866 526.614 429.326 526.531 429.398 525.774 428.5 525.94 427.81 525.14L426.978 525.868C426.312 525.045 424.594 523.483 423.833 523.429 423.161 522.642 424.654 521.819 423.898 521.79L424.748 521.038C424.814 520.286 423.547 520.096 422.798 520.055 421.431 518.433 424.338 519.658 423.726 518.036L420.771 517.805C420.069 516.272 418.619 516.236 418 514.644 418.137 513.134 421.454 513.164 421.591 511.589 423.101 511.684 422.655 511.447 424.255 510.725L423.69 509.624C425.301 508.884 425.052 507.575 425.795 507.605 425.759 508.38 426.383 507.486 427.12 507.534 427.882 507.575 428.625 507.605 428.726 506.841 428.785 506.06 428.851 505.284 429.689 504.544 430.432 504.609 430.432 504.609 431.2 504.639 434.481 501.679 432.383 503.65 435.766 499.927 435.825 499.157 435.825 499.157 435.902 498.387 436.717 497.653 436.854 496.114 438.459 495.404 438.382 496.185 438.281 496.949 439.077 496.996 441.462 495.552 440.023 494.705 439.422 493.148 440.249 492.378 440.249 492.378 441.081 491.68 440.992 492.455 442.336 491.852 441.592 491.81 441.521 492.586 442.383 490.01 443.138 490.046 444.999 487.18 443.643 490.561 446.42 485.25 446.997 484.664 448.418 484.138 448.548 483.747 448.388 483.676 450.314 482.995 449.631 482.184 449.524 481.568 449.815 481.314 448.239 482.03 449.143 480.514 451.783 478.241 451.92 476.684 454.114 477.578 452.366 474.091 453.876 474.156 453.055 474.873 452.294 473.393 452.318 474.168L454.827 474.097C456.498 472.629 452.508 472.694 453.995 471.037 453.977 470.273 453.751 469.835 453.008 469.876 452.966 469.101 452.794 468.467 453.549 468.426L454.322 469.166C455.053 468.348 453.603 465.738 455.089 464.88 455.077 464.104 455.077 463.317 455.053 462.529 457.289 460.883 456.284 461.155 456.974 458.782L456.213 458.053C456.224 458.817 457.836 457.331 457.081 457.367 457.057 456.562 457.057 456.562 457.057 455.786 458.55 454.934 459.59 449.771 459.548 448.215 459.584 449.777 457.788 444.662 459.311 445.373 461.498 442.117 460.006 437.819 460.351 433.858 458.763 433.278 461.576 432.147 460.702 430.715 459.958 430.786 459.203 430.886 459.108 430.111 459.792 429.247 459.792 429.247 460.434 428.352 460.369 427.601 460.291 426.825 459.548 426.926 459.477 426.15 459.417 425.357 460.155 425.286 460.042 424.511 459.988 423.747 459.233 423.836 459.899 422.959 459.899 422.959 460.583 422.089 460.5 421.32 459.751 421.408 459.007 421.527 459.447 418.306 456.224 415.997 457.396 412.741 456.665 412.818 456.581 412.061 456.504 411.267 458.513 408.668 455.767 405.543 457.022 403.032 455.458 402.458 456.058 400.8 455.88 399.243 456.558 398.385 454.619 397.616 454.536 396.852 452.633 393.169 453.18 390.239 451.955 386.314 450.475 387.652 449.387 375.498 448.091 370.78 446.141 367.743 447.431 364.315 446.278 361.177 447.08 361.083 447.901 360.987 447.829 360.183 446.765 357.862 449.113 356.737 449.666 354.233 451.289 354.032 452.8 353.013 454.601 354.428 456.13 353.44 455.184 351.918 455.083 351.113 458.306 350.728 460.738 350.397 463.978 350 464.061 350.811 464.126 351.622 464.947 351.522 467.361 351.208 468.348 352.706 470.762 352.415 470.851 353.238 470.917 354.044 471.742 353.955 473.336 353.742 474.228 354.44 475.132 355.162 475.94 355.056 476.755 354.955 476.66 354.162L477.551 354.837 478.283 353.955C479.163 354.665 479.953 354.565 480.768 354.44 481.666 355.162 481.91 357.572 483.461 356.589 487.338 362.651 491.982 367.802 495.044 373.964Z" fill-rule="evenodd"></path><path d="M139.637 388.442C139.371 387.13 137.494 386.754 136.737 386.736 135.944 386.724 134.493 388.364 133.754 387.076 133.754 387.076 132.475 389.169 130.918 390.279 129.871 391.036 128.267 390.917 128.267 390.917 127.882 392.909 127.669 393.13 129.409 397.794 130.196 397.943 131.013 402.404 131.877 402.614 131.511 400.895 134.162 406.305 135.02 407.063 135.565 407.206 135.565 407.206 136.109 407.349 136.654 407.492 136.388 407.999 136.145 408.47L138.56 410.188C138.803 410.839 139.318 411.035 138.75 411.966 140.596 412.091 141.762 413.206 143.307 413.886 143.84 414.119 143.509 414.56 143.207 415.025 143.71 415.234 144.219 415.467 144.55 415.025 145.882 415.025 144.929 416.391 145.131 417.041L145.959 416.827C146.149 417.494 147.178 417.948 147.178 417.948 148.789 420.411 156.632 423.417 158.585 425.654L159.354 425.278C159.97 426.56 163.421 426.799 163.421 428.469L164.143 428.028C164.51 428.636 169.695 429.626 171.134 430.402 171.856 429.948 170.826 429.179 171.613 428.791 172.472 429.519 174.265 431.171 175.094 431.94 175.094 431.94 177.337 432.108 178.935 432.483 180.948 434.63 185.08 433.306 187.542 434.409 187.867 435.048 188.383 435.185 188.903 435.304L189.691 434.91 190.005 435.531C191.531 434.744 192.366 435.501 193.384 434.619L193.698 435.25 194.455 434.839C194.764 435.471 194.764 435.471 195.059 436.127 197.202 436.599 199.144 437.607 201.446 436.426 201.742 437.058 202.299 437.183 202.814 437.296 203.577 436.897 203.577 436.897 204.37 436.527 205.974 436.885 206.27 437.517 208.135 437.38L208.425 438C210.74 436.843 212.344 437.177 214.48 437.666 214.948 436.652 216.09 438.048 216.552 437.01L216.854 437.654C218.636 436.342 221.383 437.028 223.229 436.951L223.513 437.6C224.3 437.225 223.987 437.654 223.987 437.654 225.544 436.927 229.32 436.867 230.332 436.014 232.481 436.575 232.398 436.981 235.316 436.592 235.914 436.73 237.116 436.998 237.672 437.183 240.058 435.597 242.123 435.644 244.165 436.819 246.521 436.366 250.28 434.511 252.334 433.419 252.92 433.58 253.53 433.766 254.116 433.939 255.004 433.61 255.584 433.807 256.188 432.817 258.828 431.905 260.734 430.98 263.113 429.37 263.385 430.044 264.877 428.779 265.167 429.411 265.463 428.946 265.463 428.946 265.765 428.451 266.931 428.815 267.819 427.336 268.991 427.694 269.305 427.223 269.305 427.223 269.595 426.734 271.382 426.113 270.678 425.654 272.436 425.057 273.957 424.014 276.088 420.435 279.556 418.902 279.474 417.751 281.759 417.125 282.268 416.117 282.516 415.61 283.126 415.741 283.718 415.854L283.38 415.222C284.221 414.834 283.978 413.164 284.777 413.904 285.002 413.397 286.009 412.061 285.517 411.966 287.205 410.629 287.181 406.281 289.673 405.733 289.892 405.196 289.892 405.196 290.105 404.707 291.094 403.371 290.708 400.89 291.271 400.562 291.466 400.066 291.194 399.702 291.715 399.834 292.348 397.83 292.822 394.788 293.408 392.092 292.904 391.978 293.141 391.472 293.354 390.959 293.852 391.072 294.071 390.559 294.302 390.058 293.798 389.933 294.017 389.402 294.231 388.901L294.953 388.519C293.934 388.286 295.089 386.897 294.071 386.665L294.769 386.253C293.905 383.802 295.154 381.315 294.302 378.875L294.958 378.475C293.781 377.086 293.982 375.612 295 374.163 294.639 373.525 294.822 373.012 295 372.481 293.627 371.616 295.296 370.698 294.444 369.928 294.941 368.389 293.23 366.863 294.26 365.413 293.586 364.137 293.449 363.6 292.715 362.359 292.857 361.811 293.005 361.28 293.159 360.749 292.65 360.642 292.123 360.535 292.248 360.004 293.07 359.043 292.171 358.322 292.478 357.254 291.443 357.057 291.993 356.156 291.638 355.542 291.306 352.685 290.56 350.532 288.879 348.099 289.578 347.049 288.14 342.892 288.205 341.586L287.205 341.048C286.772 339.718 286.299 339.033 285.304 338.335 285.351 337.684 285.351 337.684 285.387 337.034 284.872 336.999 284.357 336.975 284.404 336.313 284.434 335.681 284.434 335.681 284.47 335.012L283.895 335.633C282.937 334.935 282.51 333.629 282.582 332.293 280.676 329.591 279.953 327.647 277.242 323.716 276.176 324.366 277.195 321.682 275.916 322.29 274.454 318.956 273.496 318.145 271.335 316.099 271.418 315.455 271.418 315.455 271.459 314.787 270.861 314.769 270.861 314.769 270.275 314.74 269.672 314.74 269.748 314.072 269.814 313.422 266.416 311.322 254.37 309.628 252.524 306.288 251.47 306.229 250.452 305.549 249.83 306.867 249.357 306.175 249.357 306.175 248.883 305.501 246.066 307.373 243.704 304.016 241.099 303.282L240.531 303.902C239.619 301.916 237.879 303.83 236.808 303.818 236.358 303.133 235.813 303.097 235.292 303.085 232.528 304.314 229.989 302.924 227.615 306.151L227.13 305.471 233.132 316.755C232.996 317.37 234.677 324.396 236.275 327.921 236.82 328.022 237.512 329.293 237.891 330.026 237.749 330.635 237.749 330.635 237.625 331.273 238.43 332.734 239.229 334.183 240.022 335.669 239.477 335.543 239.341 336.152 239.205 336.79 239.844 338.865 239.827 341.114 240.448 343.13 241.295 343.882 240.312 344.335 241.235 345.283 241.324 345.379 240.673 346.601 240.803 346.661 240.43 347.687 241.07 348.909 241.07 348.909 241.377 351.158 241.259 349.375 242.816 350.985 241.377 352.715 243.792 355.542 242.354 357.254 243.129 358.065 243.154 356.92 243.408 357.558 243.147 358.017 243.147 358.017 242.899 358.483 242.656 358.953 243.142 359.127 243.645 359.33 244.142 360.594 243.236 361.345 243.899 362.568 244.402 362.694 243.94 364.25 244.444 364.364 244.603 365.515 246.036 365.855 244.662 366.654 244.165 366.523 244.444 368.813 243.923 370.346 244.249 370.954 243.928 373.579 243.763 374.103 244.278 374.222 244.627 373.596 244.444 374.103 244.266 374.611 244.266 374.611 244.089 375.112 244.603 375.225 244.551 376.161 244.355 376.662 244.331 378.291 243.295 379.125 242.774 380.628 242.182 383.921 243.887 386.593 241.668 387.768 242.467 388.489 241.484 389.366 241.259 389.891 240.525 390.237 240.721 391.836 240.051 392.235 239.223 394.251 238.826 394.132 238.004 396.142 236.66 396.929 236.435 397.8 235.103 398.587 234.89 399.083 234.89 399.083 234.683 399.577 234.488 400.084 234.02 399.959 233.564 399.87 232.694 400.776 229.633 402.19 229.208 403.156L229.468 403.782C227.651 404.456 227.124 404.683 225.106 405.858 223.111 407.057 221.625 407.069 219.547 408.142 217.724 407.629 216.174 408.983 214.356 408.465 213.652 408.84 212.965 409.222 212.261 409.544 211.343 409.294 209.982 410.015 209.289 409.276 208.384 409.043 208.573 410.731 207.679 410.499 207.229 410.361 207.229 410.361 206.774 410.23L206.56 409.616C205.163 410.349 204.045 409.472 202.654 410.182L202.435 409.592C201.049 410.301 199.895 409.508 199.014 410.421 197.847 409.616 195.314 409.592 193.266 409.746 193.449 409.234 192.999 409.144 192.526 409.073L191.857 409.502C192.064 408.983 187.944 409.276 187.489 409.222L186.547 409.043 186.263 408.435 185.612 408.852C184.866 408.19 179.942 407.689 178.769 406.395 177.829 407.289 176.934 406.896 175.869 406.675 171.471 406.395 166.108 404.438 165.564 404.319L165.244 403.669C163.717 404.45 161.178 403.621 160.515 402.381 159.97 402.255 159.236 402.19 158.703 402.023 158.135 400.711 154.661 400.961 154.229 399.655 154.229 399.655 152.488 398.438 151.748 397.543 150.612 398.247 147.764 394.812 147.232 394.585L145.326 394.514 144.645 392.444 142.076 390.506C141.022 388.561 139.975 390.088 139.637 388.442Z" fill-rule="evenodd"></path><path d="M180.048 313.904C180.774 313.923 181.493 313.964 182.171 314.013 185.591 317.558 192.334 316.528 196.788 318.801 198.573 317.498 200.511 318.276 202.134 317.673 202.676 318.384 202.676 318.384 203.211 319.096 207.13 317.914 209.235 319.904 212.963 319.633 213.885 319.048 213.885 319.048 214.801 318.439 215.497 318.529 216.187 318.638 215.991 319.277L216.9 318.686 217.4 319.428 218.309 318.855C218.09 319.512 218.797 319.614 219.499 319.657 221.307 318.517 222.419 320.067 224.5 318.319 224.964 319.096 225.66 319.199 226.361 319.313 228.437 317.553 229.174 319.397 231.714 318.559L232.154 319.349 233.075 318.843 232.665 318.035C232.909 317.384 233.592 317.553 234.277 317.697 235.4 318.662 236.168 320.097 238.101 319.199L238.487 320.001C239.688 319.144 230.417 318.722 244.88 318.258 245.807 317.842 245.807 317.842 246.729 317.414 247.092 318.192 247.728 318.379 248.382 318.553 250.226 317.709 251.778 317.468 253.633 316.636 254.281 316.793 255.286 317.763 256.488 316.757L256.85 317.504C258.432 317.299 260.633 317.209 262.178 316.998 261.929 317.589 261.138 316.16 261.75 316.443 263.98 315.303 266.383 313.959 268.47 315.635 270.938 315.363 272.02 314.103 274.506 313.916 275.321 315.104 277.313 312.771 278.497 313.422 279.662 314.019 279.703 312.354 280.477 313.56L280.685 314.417C281.054 313.916 281.054 313.916 281.428 313.362 282.95 313.482 282.95 313.482 284.241 312.753 284.818 313.09 285.395 313.446 285.769 312.903 287.131 312.349 288.338 312.349 290.193 311.945 290.407 312.843 291.74 311.528 291.395 312.071 292.31 311.842 293.268 311.667 294.41 312.342 294.766 311.806 295.147 311.263 295.724 311.607L296.402 312.125C297.056 312.023 297.116 311.914 297.877 311.305 305.595 310.606 309.895 306.789 317.561 306.789 318.904 306.162 320.266 305.559 321.598 304.938 322.931 304.316 324.149 305.987 324.405 304.582 323.864 304.196 325.981 303.654 326.386 303.159 328.264 302.954 329.43 299.644 330.197 298.582 329.638 298.202 330.227 297.714 330.067 296.797L330.988 296.647C330.804 295.754 330.632 291.998 331 291.461 330.833 290.58 329.495 291.147 329.858 290.605L329.525 289.977C328.978 289.598 329.692 288.645 330.067 288.138 329.704 286.323 328.086 288.368 327.325 287.083L328.734 284.972C328.086 283.688 325.237 282.935 324.137 282.175 323.376 283.254 323.436 282.82 322.116 283.501L321.669 282.5C320.338 283.218 319.564 282.355 319.19 282.868 319.737 283.224 318.821 283.181 318.452 283.694 318.054 284.231 317.691 284.767 317.132 284.375 316.573 284.014 316.014 283.646 315.086 283.803 314.706 284.358 314.706 284.358 314.337 284.852 310.609 285.491 302.188 285.702 301.344 284.538 300.41 284.762 300.41 284.762 299.488 285.003 300.089 285.316 299.001 286.016 299.358 285.449 299.952 285.775 297.663 285.135 297.318 285.708 294.338 285.678 287.779 286.359 289.064 285.581 287.553 285.509 284.61 286.317 283.438 285.696 282.998 287.662 280.899 284.587 280.263 285.696 281.19 285.449 279.091 285.316 279.698 285.6L279.769 286.378C277.902 286.956 277.789 285.19 275.934 285.865 275.303 285.6 275.035 285.28 275.339 284.731 274.714 284.496 274.286 284.122 273.989 284.719L274.286 285.521C273.358 285.871 271.794 283.96 270.569 284.84 269.939 284.593 269.344 284.339 268.708 284.092 266.573 285.316 264.272 285.256 262.054 285.437L261.632 284.683C262.274 284.822 260.555 285.871 260.805 285.262 260.145 285.111 260.145 285.111 259.484 284.979 258.355 286.064 253.669 286.028 252.36 285.714 253.674 286.028 249.714 283.411 249.958 284.767 246.64 286.07 242.845 284.117 239.326 284.086 239.111 282.711 237.63 284.979 236.512 284.134 236.733 283.508 236.947 282.887 236.298 282.76 235.418 283.26 234.77 283.049 233.896 283.58 233.242 283.508 232.546 283.417 232.766 282.79 232.088 282.711 231.404 282.633 231.214 283.224 230.548 283.14 229.87 283.049 230.066 282.446 229.21 282.952 228.324 283.634 227.48 284.183 226.813 284.141 226.98 283.508 227.146 282.88 224.256 283.29 222.615 280.649 219.564 281.656 219.725 281.059 219.077 280.999 218.369 280.933 215.836 282.639 212.238 280.788 209.889 281.994 209.491 280.728 207.974 281.342 206.613 281.33 205.786 281.934 205.25 280.384 204.585 280.372 201.444 279.045 198.78 279.702 195.391 278.949 196.693 277.628 185.959 277.574 181.844 276.826 179.275 275.421 176.117 276.736 173.424 276 173.269 276.669 173.121 277.363 172.407 277.351 170.42 276.633 169.237 278.653 166.96 279.305 166.656 280.655 165.2 281.3 165.598 282.464 164.593 283.809 164.462 284.038 163.748 284.02 163.148 286.733 162.69 286.45 162 289.139 162.714 289.211 163.427 289.223 163.249 289.893 162.714 291.895 163.962 292.673 163.427 294.687 164.135 294.729 164.873 294.765 164.67 295.435 164.337 296.791 164.866 297.485 165.408 298.202 165.223 298.871 165.05 299.547 164.343 299.517L164.866 300.222 163.986 300.85C164.534 301.567 164.361 302.23 164.176 302.9 164.711 303.599 166.835 303.726 165.8 305.034 170.771 308.013 174.887 311.625 180.048 313.904Z" fill-rule="evenodd"></path></g></svg>