<svg width="674" height="750" xmlns="http://www.w3.org/2000/svg" xmlns:xlink="http://www.w3.org/1999/xlink" overflow="hidden"><defs><clipPath id="clip0"><rect x="41" y="3" width="674" height="750"></rect></clipPath></defs><g clip-path="url(#clip0)" transform="translate(-41 -3)"><path d="M715 3C539.521 175.774 326.61 212.701 326.61 212.701 326.61 340.58 304.675 435.077 273 505 606.604 335.06 715 3 715 3Z" fill="#64A70B" fill-rule="evenodd"></path><path d="M520.603 418.206C433.203 513.281 311.644 606.635 146.77 660.065L146.76 660.065C90.5302 697.432 41 700.342 41 700.342L97.5435 753C367.189 706.916 519.32 541.746 605 378 576.757 392.647 548.323 406.065 520.603 418.206Z" fill="#C8102E" fill-rule="evenodd"></path><path d="M605.563 377.931C641.427 309.784 665.646 241.932 682 183 652.335 243.498 600.931 331.466 521 418 548.775 405.899 577.265 392.525 605.563 377.931Z" fill="#1B365D" fill-rule="evenodd"></path><path d="M681.982 182.97C710.725 79.0026 715 3 715 3 715 3 606.604 335.061 273 505L273 505C273.057 504.99 388.756 475.946 520.976 418.305 600.91 331.648 652.316 243.555 681.982 182.97Z" fill="#0089D1" fill-rule="evenodd"></path><path d="M521 418C388.984 475.784 273.468 504.899 273.416 504.909 237.859 583.834 189.929 631.423 147 660L147.01 660C311.953 606.54 433.563 513.13 521 418Z" fill="#F2A900" fill-rule="evenodd"></path></g></svg>