<svg width="750" height="758" xmlns="http://www.w3.org/2000/svg" xmlns:xlink="http://www.w3.org/1999/xlink" overflow="hidden"><defs><clipPath id="clip0"><rect x="3" y="-1" width="750" height="758"></rect></clipPath></defs><g clip-path="url(#clip0)" transform="translate(-3 1)"><path d="M474 190.044C474 136.518 430.581 93 376.967 93 323.485 93 280 136.518 280 190.044 280 243.526 323.485 287 376.967 287 430.581 286.989 474 243.515 474 190.044Z" fill="#DB6B30" fill-rule="evenodd"></path><path d="M574.349 566.515C574.349 566.515 483.439 574.712 369.039 498.666 301.806 453.973 279.268 440.57 265.241 432.8 245.569 421.928 217.483 411.528 185.262 413.172 136.585 415.638 97 452.724 97 501.537 97 550.36 136.508 589.934 185.262 589.934 228.446 589.934 264.333 558.788 271.893 517.734L272.561 515.225C272.856 513.921 274.355 510.041 278.535 510.216 282.911 510.414 288.787 516.792 304.17 528.65L304.17 528.65 319.465 541.001C444.15 645.158 544.622 657.499 564.502 660.096 575.181 661.466 662.436 673.641 752 635.24L752 483.114C726.135 519.466 649.766 563.566 574.349 566.515Z" fill="#005EB8" fill-rule="evenodd"></path><path d="M661.616 307.815C661.145 305.514 659.283 303.737 656.95 303.367 655.132 303.279 653.336 303.17 651.441 303.148 602.606 302.494 551.47 302.385 514.167 339.53 488.583 364.997 474.499 397.519 471.706 430.825 471.706 430.847 471.706 430.869 471.706 430.912 471.706 433.213 473.075 435.153 475.025 436.025L475.025 436.047C487.97 441.727 505.395 446.677 523.674 443.821 544.691 440.539 567.252 428.448 582.662 405.881 583.461 404.921 586.232 402.239 589.967 403.875 592.836 405.172 593.647 407.898 593.012 410.983 592.278 413.24 591.117 415.475 589.989 417.132 571.535 444.344 552.905 458.168 526.423 462.278 521.724 462.965 517.146 463.303 512.623 463.303 490.226 463.303 470.436 455.235 457.501 448.269 429.113 435.895 380.65 398.544 380.65 398.544 291.204 326.578 215.273 314.029 212.788 313.593 126.616 296.727 58.8775 314.193 3 348.36L3 403.351C53.8504 359.753 120.286 334.285 207.662 348.469 207.662 348.469 277.931 356.406 363.291 420.49 437.349 477.727 481.081 487.463 481.081 487.463 530.727 501.428 584.578 488.978 623.656 450.111 660.915 413 662.569 361.214 661.9 313.538 661.868 311.576 661.725 309.701 661.616 307.815Z" fill="#008755" fill-rule="evenodd"></path><path d="M185.192 413.657C217.406 412.016 245.507 422.4 265.181 433.255 279.209 441.014 301.762 454.397 368.992 499.021 483.407 574.953 574.327 566.768 574.327 566.768 649.754 563.813 726.132 519.791 752 483.504L752 0 3.01065 0 3.01065 348.383C58.85 314.078 126.518 296.548 212.614 313.487 215.108 313.936 290.961 326.52 380.329 398.753 380.329 398.753 428.749 436.243 457.112 448.663 470.046 455.655 489.808 463.753 512.185 463.753 516.704 463.753 521.278 463.413 525.973 462.724 552.432 458.599 571.045 444.723 589.483 417.41 590.621 415.747 591.77 413.504 592.503 411.238 593.138 408.142 592.317 405.406 589.461 404.104 585.73 402.462 582.961 405.154 582.162 406.117 566.766 428.769 544.225 440.915 523.226 444.198 504.963 447.065 487.543 442.108 474.62 436.396L474.62 436.374C472.672 435.499 471.304 433.551 471.304 431.242 471.304 431.198 471.304 431.176 471.304 431.154 474.095 397.724 488.167 365.082 513.728 339.52 550.998 302.238 602.089 302.347 650.881 303.004 652.774 303.026 654.568 303.135 656.385 303.223 658.716 303.595 660.576 305.379 661.047 307.688 661.156 309.581 661.298 311.463 661.32 313.443 661.988 361.296 660.335 413.274 623.109 450.523 584.077 489.523 530.273 502.03 480.66 488.013 480.66 488.013 436.967 478.241 362.974 420.791 277.689 356.47 207.481 348.504 207.481 348.504 120.183 334.256 53.8056 359.83 3 403.59L3 756 751.989 756 751.989 635.4C662.414 673.744 575.148 661.586 564.468 660.218 544.586 657.625 444.101 645.303 319.401 541.304L304.104 528.971C288.719 517.131 282.853 510.763 278.465 510.566 274.285 510.391 272.786 514.264 272.491 515.566L271.823 518.072C264.262 559.064 228.371 590.163 185.181 590.163 136.421 590.163 96.9082 550.649 96.9082 501.899 96.9082 453.149 136.498 416.119 185.192 413.657ZM376.663 287.411C323.1 287.411 279.549 243.87 279.549 190.305 279.549 136.696 323.1 93.1115 376.663 93.1115 430.358 93.1115 473.843 136.696 473.843 190.305 473.843 243.87 430.358 287.411 376.663 287.411Z" fill="#FFCD00" fill-rule="evenodd"></path></g></svg>