<svg width="740" height="406" xmlns="http://www.w3.org/2000/svg" xmlns:xlink="http://www.w3.org/1999/xlink" overflow="hidden"><defs><clipPath id="clip0"><rect x="17" y="122" width="740" height="406"></rect></clipPath><clipPath id="clip1"><rect x="18" y="123" width="738" height="404"></rect></clipPath><clipPath id="clip2"><rect x="18" y="123" width="738" height="404"></rect></clipPath><linearGradient x1="606.733" y1="1186.62" x2="542.791" y2="1340.2" gradientUnits="userSpaceOnUse" spreadMethod="pad" id="fill3"><stop offset="0" stop-color="#44C8F5"></stop><stop offset="0.0288" stop-color="#36C4F3"></stop><stop offset="0.2534" stop-color="#00AFEA"></stop><stop offset="0.423" stop-color="#00A4E5"></stop><stop offset="0.5169" stop-color="#00A1E4"></stop><stop offset="1" stop-color="#0066B3"></stop></linearGradient><linearGradient x1="611.005" y1="1188.39" x2="547.062" y2="1341.98" gradientUnits="userSpaceOnUse" spreadMethod="pad" id="fill4"><stop offset="0" stop-color="#44C8F5"></stop><stop offset="0.0288" stop-color="#36C4F3"></stop><stop offset="0.2534" stop-color="#00AFEA"></stop><stop offset="0.423" stop-color="#00A4E5"></stop><stop offset="0.5169" stop-color="#00A1E4"></stop><stop offset="1" stop-color="#0066B3"></stop></linearGradient><linearGradient x1="404.714" y1="1217.21" x2="479.816" y2="1355.96" gradientUnits="userSpaceOnUse" spreadMethod="pad" id="fill5"><stop offset="0" stop-color="#44C8F5"></stop><stop offset="0.0288" stop-color="#36C4F3"></stop><stop offset="0.2534" stop-color="#00AFEA"></stop><stop offset="0.423" stop-color="#00A4E5"></stop><stop offset="0.5169" stop-color="#00A1E4"></stop><stop offset="1" stop-color="#0066B3"></stop></linearGradient><linearGradient x1="406.185" y1="1216.41" x2="481.289" y2="1355.16" gradientUnits="userSpaceOnUse" spreadMethod="pad" id="fill6"><stop offset="0" stop-color="#44C8F5"></stop><stop offset="0.0288" stop-color="#36C4F3"></stop><stop offset="0.2534" stop-color="#00AFEA"></stop><stop offset="0.423" stop-color="#00A4E5"></stop><stop offset="0.5169" stop-color="#00A1E4"></stop><stop offset="1" stop-color="#0066B3"></stop></linearGradient><linearGradient x1="270.853" y1="1308.32" x2="424.678" y2="1401.46" gradientUnits="userSpaceOnUse" spreadMethod="pad" id="fill7"><stop offset="0" stop-color="#44C8F5"></stop><stop offset="0.0288" stop-color="#36C4F3"></stop><stop offset="0.2534" stop-color="#00AFEA"></stop><stop offset="0.423" stop-color="#00A4E5"></stop><stop offset="0.5169" stop-color="#00A1E4"></stop><stop offset="1" stop-color="#0066B3"></stop></linearGradient><linearGradient x1="268.957" y1="1311.45" x2="422.786" y2="1404.59" gradientUnits="userSpaceOnUse" spreadMethod="pad" id="fill8"><stop offset="0" stop-color="#44C8F5"></stop><stop offset="0.0288" stop-color="#36C4F3"></stop><stop offset="0.2534" stop-color="#00AFEA"></stop><stop offset="0.423" stop-color="#00A4E5"></stop><stop offset="0.5169" stop-color="#00A1E4"></stop><stop offset="1" stop-color="#0066B3"></stop></linearGradient><linearGradient x1="673.506" y1="1274.9" x2="556.99" y2="1361.43" gradientUnits="userSpaceOnUse" spreadMethod="pad" id="fill9"><stop offset="0" stop-color="#44C8F5"></stop><stop offset="0.0288" stop-color="#36C4F3"></stop><stop offset="0.2534" stop-color="#00AFEA"></stop><stop offset="0.423" stop-color="#00A4E5"></stop><stop offset="0.5169" stop-color="#00A1E4"></stop><stop offset="1" stop-color="#0066B3"></stop></linearGradient><linearGradient x1="118.044" y1="1383.84" x2="316.399" y2="1430.84" gradientUnits="userSpaceOnUse" spreadMethod="pad" id="fill10"><stop offset="0" stop-color="#44C8F5"></stop><stop offset="0.0288" stop-color="#36C4F3"></stop><stop offset="0.2534" stop-color="#00AFEA"></stop><stop offset="0.423" stop-color="#00A4E5"></stop><stop offset="0.5169" stop-color="#00A1E4"></stop><stop offset="1" stop-color="#0066B3"></stop></linearGradient><linearGradient x1="117.815" y1="1384.82" x2="316.166" y2="1431.81" gradientUnits="userSpaceOnUse" spreadMethod="pad" id="fill11"><stop offset="0" stop-color="#44C8F5"></stop><stop offset="0.0288" stop-color="#36C4F3"></stop><stop offset="0.2534" stop-color="#00AFEA"></stop><stop offset="0.423" stop-color="#00A4E5"></stop><stop offset="0.5169" stop-color="#00A1E4"></stop><stop offset="1" stop-color="#0066B3"></stop></linearGradient><linearGradient x1="218.106" y1="1338.66" x2="391.592" y2="1412.8" gradientUnits="userSpaceOnUse" spreadMethod="pad" id="fill12"><stop offset="0" stop-color="#44C8F5"></stop><stop offset="0.0288" stop-color="#36C4F3"></stop><stop offset="0.2534" stop-color="#00AFEA"></stop><stop offset="0.423" stop-color="#00A4E5"></stop><stop offset="0.5169" stop-color="#00A1E4"></stop><stop offset="1" stop-color="#0066B3"></stop></linearGradient><linearGradient x1="218.458" y1="1337.86" x2="391.937" y2="1411.99" gradientUnits="userSpaceOnUse" spreadMethod="pad" id="fill13"><stop offset="0" stop-color="#44C8F5"></stop><stop offset="0.0288" stop-color="#36C4F3"></stop><stop offset="0.2534" stop-color="#00AFEA"></stop><stop offset="0.423" stop-color="#00A4E5"></stop><stop offset="0.5169" stop-color="#00A1E4"></stop><stop offset="1" stop-color="#0066B3"></stop></linearGradient><linearGradient x1="169.708" y1="1361.32" x2="356.681" y2="1426.54" gradientUnits="userSpaceOnUse" spreadMethod="pad" id="fill14"><stop offset="0" stop-color="#44C8F5"></stop><stop offset="0.0288" stop-color="#36C4F3"></stop><stop offset="0.2534" stop-color="#00AFEA"></stop><stop offset="0.423" stop-color="#00A4E5"></stop><stop offset="0.5169" stop-color="#00A1E4"></stop><stop offset="1" stop-color="#0066B3"></stop></linearGradient><linearGradient x1="170.712" y1="1358.42" x2="357.696" y2="1423.64" gradientUnits="userSpaceOnUse" spreadMethod="pad" id="fill15"><stop offset="0" stop-color="#44C8F5"></stop><stop offset="0.0288" stop-color="#36C4F3"></stop><stop offset="0.2534" stop-color="#00AFEA"></stop><stop offset="0.423" stop-color="#00A4E5"></stop><stop offset="0.5169" stop-color="#00A1E4"></stop><stop offset="1" stop-color="#0066B3"></stop></linearGradient><linearGradient x1="748.557" y1="1376.17" x2="596.23" y2="1405.28" gradientUnits="userSpaceOnUse" spreadMethod="pad" id="fill16"><stop offset="0" stop-color="#44C8F5"></stop><stop offset="0.0288" stop-color="#36C4F3"></stop><stop offset="0.2534" stop-color="#00AFEA"></stop><stop offset="0.423" stop-color="#00A4E5"></stop><stop offset="0.5169" stop-color="#00A1E4"></stop><stop offset="1" stop-color="#0066B3"></stop></linearGradient><linearGradient x1="709.548" y1="1340.25" x2="577.731" y2="1381.6" gradientUnits="userSpaceOnUse" spreadMethod="pad" id="fill17"><stop offset="0" stop-color="#44C8F5"></stop><stop offset="0.0288" stop-color="#36C4F3"></stop><stop offset="0.2534" stop-color="#00AFEA"></stop><stop offset="0.423" stop-color="#00A4E5"></stop><stop offset="0.5169" stop-color="#00A1E4"></stop><stop offset="1" stop-color="#0066B3"></stop></linearGradient><linearGradient x1="769.171" y1="1409.55" x2="623.528" y2="1413.36" gradientUnits="userSpaceOnUse" spreadMethod="pad" id="fill18"><stop offset="0" stop-color="#44C8F5"></stop><stop offset="0.0288" stop-color="#36C4F3"></stop><stop offset="0.2534" stop-color="#00AFEA"></stop><stop offset="0.423" stop-color="#00A4E5"></stop><stop offset="0.5169" stop-color="#00A1E4"></stop><stop offset="1" stop-color="#0066B3"></stop></linearGradient><linearGradient x1="331.889" y1="1275.73" x2="448.066" y2="1377.48" gradientUnits="userSpaceOnUse" spreadMethod="pad" id="fill19"><stop offset="0" stop-color="#44C8F5"></stop><stop offset="0.0288" stop-color="#36C4F3"></stop><stop offset="0.2534" stop-color="#00AFEA"></stop><stop offset="0.423" stop-color="#00A4E5"></stop><stop offset="0.5169" stop-color="#00A1E4"></stop><stop offset="1" stop-color="#0066B3"></stop></linearGradient><linearGradient x1="504.522" y1="1086.39" x2="513.486" y2="1346.4" gradientUnits="userSpaceOnUse" spreadMethod="pad" id="fill20"><stop offset="0" stop-color="#44C8F5"></stop><stop offset="0.0288" stop-color="#36C4F3"></stop><stop offset="0.2534" stop-color="#00AFEA"></stop><stop offset="0.423" stop-color="#00A4E5"></stop><stop offset="0.5169" stop-color="#00A1E4"></stop><stop offset="1" stop-color="#0066B3"></stop></linearGradient><linearGradient x1="834.799" y1="239.219" x2="758.651" y2="422.105" gradientUnits="userSpaceOnUse" spreadMethod="pad" id="fill21"><stop offset="0" stop-color="#44C8F5"></stop><stop offset="0.0288" stop-color="#36C4F3"></stop><stop offset="0.2534" stop-color="#00AFEA"></stop><stop offset="0.423" stop-color="#00A4E5"></stop><stop offset="0.5169" stop-color="#00A1E4"></stop><stop offset="1" stop-color="#0066B3"></stop></linearGradient><linearGradient x1="839.884" y1="241.329" x2="763.736" y2="424.234" gradientUnits="userSpaceOnUse" spreadMethod="pad" id="fill22"><stop offset="0" stop-color="#44C8F5"></stop><stop offset="0.0288" stop-color="#36C4F3"></stop><stop offset="0.2534" stop-color="#00AFEA"></stop><stop offset="0.423" stop-color="#00A4E5"></stop><stop offset="0.5169" stop-color="#00A1E4"></stop><stop offset="1" stop-color="#0066B3"></stop></linearGradient><linearGradient x1="596.392" y1="279.093" x2="685.85" y2="444.353" gradientUnits="userSpaceOnUse" spreadMethod="pad" id="fill23"><stop offset="0" stop-color="#44C8F5"></stop><stop offset="0.0288" stop-color="#36C4F3"></stop><stop offset="0.2534" stop-color="#00AFEA"></stop><stop offset="0.423" stop-color="#00A4E5"></stop><stop offset="0.5169" stop-color="#00A1E4"></stop><stop offset="1" stop-color="#0066B3"></stop></linearGradient><linearGradient x1="598.143" y1="278.149" x2="687.6" y2="443.41" gradientUnits="userSpaceOnUse" spreadMethod="pad" id="fill24"><stop offset="0" stop-color="#44C8F5"></stop><stop offset="0.0288" stop-color="#36C4F3"></stop><stop offset="0.2534" stop-color="#00AFEA"></stop><stop offset="0.423" stop-color="#00A4E5"></stop><stop offset="0.5169" stop-color="#00A1E4"></stop><stop offset="1" stop-color="#0066B3"></stop></linearGradient><linearGradient x1="431.667" y1="381.825" x2="614.82" y2="492.727" gradientUnits="userSpaceOnUse" spreadMethod="pad" id="fill25"><stop offset="0" stop-color="#44C8F5"></stop><stop offset="0.0288" stop-color="#36C4F3"></stop><stop offset="0.2534" stop-color="#00AFEA"></stop><stop offset="0.423" stop-color="#00A4E5"></stop><stop offset="0.5169" stop-color="#00A1E4"></stop><stop offset="1" stop-color="#0066B3"></stop></linearGradient><linearGradient x1="429.402" y1="385.55" x2="612.567" y2="496.46" gradientUnits="userSpaceOnUse" spreadMethod="pad" id="fill26"><stop offset="0" stop-color="#44C8F5"></stop><stop offset="0.0288" stop-color="#36C4F3"></stop><stop offset="0.2534" stop-color="#00AFEA"></stop><stop offset="0.423" stop-color="#00A4E5"></stop><stop offset="0.5169" stop-color="#00A1E4"></stop><stop offset="1" stop-color="#0066B3"></stop></linearGradient><linearGradient x1="915.554" y1="343.184" x2="776.804" y2="446.248" gradientUnits="userSpaceOnUse" spreadMethod="pad" id="fill27"><stop offset="0" stop-color="#44C8F5"></stop><stop offset="0.0288" stop-color="#36C4F3"></stop><stop offset="0.2534" stop-color="#00AFEA"></stop><stop offset="0.423" stop-color="#00A4E5"></stop><stop offset="0.5169" stop-color="#00A1E4"></stop><stop offset="1" stop-color="#0066B3"></stop></linearGradient><linearGradient x1="256.734" y1="474.634" x2="492.991" y2="530.602" gradientUnits="userSpaceOnUse" spreadMethod="pad" id="fill28"><stop offset="0" stop-color="#44C8F5"></stop><stop offset="0.0288" stop-color="#36C4F3"></stop><stop offset="0.2534" stop-color="#00AFEA"></stop><stop offset="0.423" stop-color="#00A4E5"></stop><stop offset="0.5169" stop-color="#00A1E4"></stop><stop offset="1" stop-color="#0066B3"></stop></linearGradient><linearGradient x1="256.459" y1="475.808" x2="492.716" y2="531.775" gradientUnits="userSpaceOnUse" spreadMethod="pad" id="fill29"><stop offset="0" stop-color="#44C8F5"></stop><stop offset="0.0288" stop-color="#36C4F3"></stop><stop offset="0.2534" stop-color="#00AFEA"></stop><stop offset="0.423" stop-color="#00A4E5"></stop><stop offset="0.5169" stop-color="#00A1E4"></stop><stop offset="1" stop-color="#0066B3"></stop></linearGradient><linearGradient x1="368.713" y1="418.462" x2="575.284" y2="506.74" gradientUnits="userSpaceOnUse" spreadMethod="pad" id="fill30"><stop offset="0" stop-color="#44C8F5"></stop><stop offset="0.0288" stop-color="#36C4F3"></stop><stop offset="0.2534" stop-color="#00AFEA"></stop><stop offset="0.423" stop-color="#00A4E5"></stop><stop offset="0.5169" stop-color="#00A1E4"></stop><stop offset="1" stop-color="#0066B3"></stop></linearGradient><linearGradient x1="369.125" y1="417.506" x2="575.691" y2="505.783" gradientUnits="userSpaceOnUse" spreadMethod="pad" id="fill31"><stop offset="0" stop-color="#44C8F5"></stop><stop offset="0.0288" stop-color="#36C4F3"></stop><stop offset="0.2534" stop-color="#00AFEA"></stop><stop offset="0.423" stop-color="#00A4E5"></stop><stop offset="0.5169" stop-color="#00A1E4"></stop><stop offset="1" stop-color="#0066B3"></stop></linearGradient><linearGradient x1="311.409" y1="445.842" x2="534.046" y2="523.495" gradientUnits="userSpaceOnUse" spreadMethod="pad" id="fill32"><stop offset="0" stop-color="#44C8F5"></stop><stop offset="0.0288" stop-color="#36C4F3"></stop><stop offset="0.2534" stop-color="#00AFEA"></stop><stop offset="0.423" stop-color="#00A4E5"></stop><stop offset="0.5169" stop-color="#00A1E4"></stop><stop offset="1" stop-color="#0066B3"></stop></linearGradient><linearGradient x1="312.617" y1="442.4" x2="535.254" y2="520.053" gradientUnits="userSpaceOnUse" spreadMethod="pad" id="fill33"><stop offset="0" stop-color="#44C8F5"></stop><stop offset="0.0288" stop-color="#36C4F3"></stop><stop offset="0.2534" stop-color="#00AFEA"></stop><stop offset="0.423" stop-color="#00A4E5"></stop><stop offset="0.5169" stop-color="#00A1E4"></stop><stop offset="1" stop-color="#0066B3"></stop></linearGradient><linearGradient x1="1004.45" y1="464.511" x2="823.051" y2="499.179" gradientUnits="userSpaceOnUse" spreadMethod="pad" id="fill34"><stop offset="0" stop-color="#44C8F5"></stop><stop offset="0.0288" stop-color="#36C4F3"></stop><stop offset="0.2534" stop-color="#00AFEA"></stop><stop offset="0.423" stop-color="#00A4E5"></stop><stop offset="0.5169" stop-color="#00A1E4"></stop><stop offset="1" stop-color="#0066B3"></stop></linearGradient><linearGradient x1="957.886" y1="421.692" x2="800.905" y2="470.941" gradientUnits="userSpaceOnUse" spreadMethod="pad" id="fill35"><stop offset="0" stop-color="#44C8F5"></stop><stop offset="0.0288" stop-color="#36C4F3"></stop><stop offset="0.2534" stop-color="#00AFEA"></stop><stop offset="0.423" stop-color="#00A4E5"></stop><stop offset="0.5169" stop-color="#00A1E4"></stop><stop offset="1" stop-color="#0066B3"></stop></linearGradient><linearGradient x1="1029.14" y1="504.381" x2="855.704" y2="508.906" gradientUnits="userSpaceOnUse" spreadMethod="pad" id="fill36"><stop offset="0" stop-color="#44C8F5"></stop><stop offset="0.0288" stop-color="#36C4F3"></stop><stop offset="0.2534" stop-color="#00AFEA"></stop><stop offset="0.423" stop-color="#00A4E5"></stop><stop offset="0.5169" stop-color="#00A1E4"></stop><stop offset="1" stop-color="#0066B3"></stop></linearGradient><linearGradient x1="511.016" y1="347.993" x2="649.396" y2="469.172" gradientUnits="userSpaceOnUse" spreadMethod="pad" id="fill37"><stop offset="0" stop-color="#44C8F5"></stop><stop offset="0.0288" stop-color="#36C4F3"></stop><stop offset="0.2534" stop-color="#00AFEA"></stop><stop offset="0.423" stop-color="#00A4E5"></stop><stop offset="0.5169" stop-color="#00A1E4"></stop><stop offset="1" stop-color="#0066B3"></stop></linearGradient><linearGradient x1="713.263" y1="121.501" x2="723.939" y2="431.124" gradientUnits="userSpaceOnUse" spreadMethod="pad" id="fill38"><stop offset="0" stop-color="#44C8F5"></stop><stop offset="0.0288" stop-color="#36C4F3"></stop><stop offset="0.2534" stop-color="#00AFEA"></stop><stop offset="0.423" stop-color="#00A4E5"></stop><stop offset="0.5169" stop-color="#00A1E4"></stop><stop offset="1" stop-color="#0066B3"></stop></linearGradient></defs><g clip-path="url(#clip0)" transform="translate(-17 -122)"><g clip-path="url(#clip1)"><g clip-path="url(#clip2)"><path d="M446.997 1531.57C447.357 1531.23 491.525 1487.84 491.525 1487.84 491.525 1487.84 535.707 1531.23 536.065 1531.57 536.542 1531.57 565.366 1531.57 568.032 1531.57 566.08 1529.57 523.974 1486.44 523.974 1486.44 523.974 1486.44 558.951 1486.44 560.139 1486.44 560.139 1485.31 560.139 1466.17 560.139 1465.04 558.916 1465.04 424.131 1465.04 422.914 1465.04 422.914 1466.17 422.914 1485.31 422.914 1486.44 424.113 1486.44 459.084 1486.44 459.084 1486.44 459.084 1486.44 416.977 1529.57 415.026 1531.57 417.678 1531.57 446.519 1531.57 446.997 1531.57Z" fill="#4C5C65" transform="matrix(1.00161 0 0 1 -264.659 -2.07869)"></path><path d="M248.362 1465.04 208.211 1569.42 231.151 1569.42 257.895 1500.06 284.637 1569.42 307.579 1569.42 267.425 1465.04Z" fill="#4C5C65" transform="matrix(1.00161 0 0 1 -264.659 -2.07869)"></path><path d="M360.195 1569.42C361.345 1569.42 381.986 1569.42 383.128 1569.42 383.128 1568.21 383.128 1466.25 383.128 1465.04 381.986 1465.04 361.342 1465.04 360.195 1465.04 360.195 1466.25 360.195 1568.21 360.195 1569.42Z" fill="#4C5C65" transform="matrix(1.00161 0 0 1 -264.659 -2.07869)"></path><path d="M319.953 1496.29C317.385 1493.19 313.509 1491.22 309.178 1491.22 301.469 1491.22 295.209 1497.46 295.209 1505.14 295.209 1512.82 301.469 1519.07 309.178 1519.07 313.507 1519.07 317.383 1517.09 319.953 1514.01 319.953 1540.83 319.953 1568.79 319.953 1569.42 321.102 1569.42 341.718 1569.42 342.861 1569.42 342.861 1568.2 342.861 1466.25 342.861 1465.04 341.718 1465.04 321.102 1465.04 319.953 1465.04 319.953 1465.49 319.953 1479.06 319.953 1496.29Z" fill="#4C5C65" transform="matrix(1.00161 0 0 1 -264.659 -2.07869)"></path><path d="M572.793 1542.91 501.937 1542.91C505.067 1540.07 507.067 1536.03 507.067 1531.48 507.067 1522.93 500.111 1515.99 491.525 1515.99 482.947 1515.99 475.995 1522.93 475.995 1531.48 475.995 1536.03 477.995 1540.07 481.119 1542.91L410.276 1542.91 410.276 1564.33 458.557 1564.33C450.474 1572.6 445.48 1583.88 445.48 1596.34 445.48 1621.7 466.096 1642.25 491.525 1642.25 516.954 1642.25 537.589 1621.7 537.589 1596.34 537.589 1583.88 532.588 1572.6 524.505 1564.33L572.793 1564.33 572.793 1542.91ZM491.525 1619.37C478.773 1619.37 468.433 1609.05 468.433 1596.34 468.433 1583.63 478.773 1573.32 491.525 1573.32 504.291 1573.32 514.631 1583.63 514.631 1596.34 514.631 1609.06 504.289 1619.37 491.525 1619.37Z" fill="#4C5C65" transform="matrix(1.00161 0 0 1 -264.659 -2.07869)"></path><path d="M730.903 1522.91C730.903 1523.42 730.903 1531.96 730.903 1532.47 731.463 1532.47 784.913 1532.47 784.913 1532.47L784.913 1539.99C784.913 1539.99 731.463 1539.99 730.903 1539.99 730.903 1540.53 730.903 1568.54 730.903 1569.07 731.463 1569.07 798.602 1569.07 799.162 1569.07 799.162 1568.57 799.162 1560.03 799.162 1559.52 798.602 1559.52 745.163 1559.52 745.163 1559.52L745.163 1549.55C745.163 1549.55 798.602 1549.55 799.162 1549.55 799.162 1549.01 799.162 1523.46 799.162 1522.91 798.602 1522.91 731.463 1522.91 730.903 1522.91Z" fill="#4C5C65" transform="matrix(1.00161 0 0 1 -264.659 -2.07869)"></path><path d="M784.915 1465.06C784.915 1465.6 784.915 1474.18 784.915 1474.18L767.216 1474.18C767.216 1474.18 767.216 1465.6 767.216 1465.06 766.696 1465.06 753.502 1465.06 752.964 1465.06 752.964 1465.6 752.964 1476.79 752.964 1476.79L730.679 1476.79C730.679 1476.79 730.679 1465.6 730.679 1465.06 730.163 1465.06 716.965 1465.06 716.441 1465.06 716.441 1465.61 716.441 1512.04 716.441 1512.58 716.978 1512.58 766.669 1512.58 767.218 1512.58 767.218 1512.06 767.218 1503.76 767.218 1503.76L784.918 1503.76C784.918 1503.76 784.918 1515.8 784.918 1516.33 785.437 1516.33 798.64 1516.33 799.164 1516.33 799.164 1515.77 799.164 1465.61 799.164 1465.06 798.638 1465.06 785.435 1465.06 784.915 1465.06ZM730.677 1502.47 730.677 1486.35 752.962 1486.35 752.962 1503.03 730.677 1503.03 730.677 1502.47ZM767.214 1493.65 767.214 1483.75 784.913 1483.75 784.913 1494.21 767.214 1494.21 767.214 1493.65Z" fill="#4C5C65" transform="matrix(1.00161 0 0 1 -264.659 -2.07869)"></path><path d="M612.939 1530.45C612.939 1530.97 612.939 1539.5 612.939 1540 613.495 1540 673.917 1540 673.917 1540 673.917 1540 673.917 1569.18 673.917 1569.73 674.451 1569.73 687.644 1569.73 688.164 1569.73 688.164 1569.18 688.164 1531 688.164 1530.46 687.631 1530.45 613.495 1530.45 612.939 1530.45Z" fill="#4C5C65" transform="matrix(1.00161 0 0 1 -264.659 -2.07869)"></path><path d="M612.939 1465.06C612.939 1465.61 612.939 1507.15 612.939 1507.69 613.495 1507.69 687.631 1507.69 688.166 1507.69 688.166 1507.18 688.166 1499.36 688.166 1498.85 687.633 1498.85 627.193 1498.85 627.193 1498.85L627.193 1490.79C627.193 1490.79 685.646 1490.79 686.193 1490.79 686.193 1490.28 686.193 1482.47 686.193 1481.96 685.646 1481.96 627.193 1481.96 627.193 1481.96L627.193 1473.9C627.193 1473.9 687.633 1473.9 688.166 1473.9 688.166 1473.39 688.166 1465.57 688.166 1465.06 687.631 1465.06 613.495 1465.06 612.939 1465.06Z" fill="#4C5C65" transform="matrix(1.00161 0 0 1 -264.659 -2.07869)"></path><path d="M1121.06 1465.06C1121.06 1465.61 1121.06 1568.53 1121.06 1569.07 1121.6 1569.07 1134.77 1569.07 1135.3 1569.07 1135.3 1568.53 1135.3 1465.61 1135.3 1465.06L1121.06 1465.06Z" fill="#4C5C65" transform="matrix(1.00161 0 0 1 -264.659 -2.07869)"></path><path d="M895.748 1465.06C895.748 1465.61 895.748 1568.53 895.748 1569.07 896.263 1569.07 909.457 1569.07 909.979 1569.07 909.979 1568.54 909.979 1506.98 909.979 1506.98 909.979 1506.98 924.152 1506.98 924.69 1506.98 924.69 1506.46 924.69 1497.93 924.69 1497.43 924.152 1497.43 909.979 1497.43 909.979 1497.43 909.979 1497.43 909.979 1465.61 909.979 1465.06 909.457 1465.06 896.263 1465.06 895.748 1465.06Z" fill="#4C5C65" transform="matrix(1.00161 0 0 1 -264.659 -2.07869)"></path><path d="M857.826 1483.89 857.826 1476.98C857.826 1476.98 879.495 1476.98 880.029 1476.98 880.029 1476.46 880.029 1467.92 880.029 1467.42 879.482 1467.42 821.354 1467.42 820.809 1467.42 820.809 1467.92 820.809 1476.46 820.809 1476.98 821.347 1476.98 842.589 1476.98 843.017 1476.98L843.017 1483.89C842.981 1504.81 834.738 1519.08 819.147 1524.96L819.147 1536.24C819.362 1536.19 841.197 1531.61 849.512 1515.13L850.421 1513.33 851.331 1515.13C859.65 1531.61 881.48 1536.19 881.7 1536.24L881.7 1524.96C866.1 1519.08 857.864 1504.81 857.826 1483.89Z" fill="#4C5C65" transform="matrix(1.00161 0 0 1 -264.659 -2.07869)"></path><path d="M1011.3 1465.06C1011.3 1465.61 1011.3 1568.53 1011.3 1569.07 1011.83 1569.07 1025.01 1569.07 1025.55 1569.07 1025.55 1568.53 1025.55 1465.61 1025.55 1465.06L1011.3 1465.06Z" fill="#4C5C65" transform="matrix(1.00161 0 0 1 -264.659 -2.07869)"></path><path d="M973.356 1463.04 973.392 1463.04C973.392 1463.57 973.392 1471.67 973.392 1471.67 973.392 1471.67 996.509 1471.67 997.293 1471.67L997.311 1471.67C997.311 1472.17 997.311 1480.7 997.311 1481.21L997.293 1481.21C996.509 1481.21 973.616 1481.21 973.616 1481.21L973.616 1484.17C973.616 1508.91 983.821 1520.25 999.802 1526.29 999.802 1526.29 999.802 1537.26 999.802 1537.9L999.742 1537.89 999.742 1537.89C999.527 1537.85 976.081 1532.93 966.897 1516.25L965.979 1514.44 965.064 1516.25C955.888 1532.93 932.437 1537.86 932.211 1537.89L932.211 1537.89C932.211 1537.89 932.17 1537.9 932.159 1537.9 932.159 1537.26 932.159 1526.29 932.159 1526.29 948.14 1520.25 958.357 1508.91 958.357 1484.17L958.357 1481.21C958.357 1481.21 935.439 1481.21 934.671 1481.21L934.653 1481.21C934.653 1480.7 934.653 1472.17 934.653 1471.67L934.671 1471.67C935.441 1471.67 958.567 1471.67 958.567 1471.67 958.567 1471.67 958.567 1463.57 958.567 1463.04L958.599 1463.04 973.356 1463.04Z" fill="#4C5C65" transform="matrix(1.00161 0 0 1 -264.659 -2.07869)"></path><path d="M599.066 1514.29C599.066 1514.8 599.066 1523.33 599.066 1523.85 599.615 1523.85 701.504 1523.85 702.059 1523.85 702.059 1523.33 702.059 1514.8 702.059 1514.29 701.502 1514.29 599.615 1514.29 599.066 1514.29Z" fill="#4C5C65" transform="matrix(1.00161 0 0 1 -264.659 -2.07869)"></path><path d="M1121.06 1465.06C1121.06 1465.61 1121.06 1568.53 1121.06 1569.07 1121.58 1569.07 1134.77 1569.07 1135.3 1569.07 1135.3 1568.53 1135.3 1465.61 1135.3 1465.06L1121.06 1465.06Z" fill="#4C5C65" transform="matrix(1.00161 0 0 1 -264.659 -2.07869)"></path><path d="M1083.38 1484.17 1083.38 1465.05 1068.1 1465.05 1068.1 1484.17C1068.1 1508.91 1057.9 1520.25 1041.91 1526.29 1041.91 1526.29 1041.91 1537.26 1041.91 1537.9L1041.98 1537.89 1041.98 1537.89C1042.2 1537.85 1065.64 1532.93 1074.82 1516.24L1075.73 1514.44 1076.65 1516.24C1085.83 1532.93 1109.28 1537.85 1109.5 1537.89L1109.5 1537.89 1109.56 1537.9C1109.56 1537.26 1109.56 1526.29 1109.56 1526.29 1093.58 1520.25 1083.38 1508.91 1083.38 1484.17Z" fill="#4C5C65" transform="matrix(1.00161 0 0 1 -264.659 -2.07869)"></path><path d="M618.07 1242.18C600.834 1208.75 589.654 1179.23 583.267 1160.14 580.137 1177.58 572.439 1217.51 561.013 1257.53 570.402 1273.86 579.64 1286.8 587.694 1298.16 598.703 1281.6 610.004 1262.15 618.07 1242.18Z" fill="url(#fill3)" transform="matrix(1.00161 0 0 1 -264.659 -2.07869)"></path><path d="M580.258 1308.99C572.121 1297.53 564.306 1285.23 556.65 1272.18 550.96 1290.52 544.489 1308.29 537.336 1323.28 540.741 1328.29 545.968 1335.43 553.128 1343.77 557.347 1338.91 568.104 1326.16 580.258 1308.99Z" fill="url(#fill4)" transform="matrix(1.00161 0 0 1 -264.659 -2.07869)"></path><path d="M435.416 1322.45C446.47 1337.7 458.526 1353.44 470.62 1367.68 480.012 1361.73 488.272 1355.83 495.498 1350.12 489.28 1336.14 480.726 1315.05 472.148 1293.29 463.988 1300.44 451.648 1310.65 435.416 1322.45Z" fill="url(#fill5)" transform="matrix(1.00161 0 0 1 -264.659 -2.07869)"></path><path d="M467.338 1281.04C456.962 1254.49 447.187 1228.77 442.18 1215.52 426.326 1231.88 410.135 1247 393.775 1260.89 401.186 1272.7 413.634 1291.81 428.466 1312.74 445.975 1299.77 459.01 1288.61 467.338 1281.04Z" fill="url(#fill6)" transform="matrix(1.00161 0 0 1 -264.659 -2.07869)"></path><path d="M351.935 1373.81C370.786 1382.74 390.809 1391.44 410 1398.35 417.501 1395.34 424.608 1392.24 431.338 1389.09 414.51 1381.63 395.411 1371.42 376.548 1360.44 368.743 1364.89 360.531 1369.37 351.935 1373.81Z" fill="url(#fill7)" transform="matrix(1.00161 0 0 1 -264.659 -2.07869)"></path><path d="M365.38 1353.82C345.962 1342.15 327.375 1330.08 312.463 1319.84 302.208 1326.12 292.061 1331.95 282.118 1337.37 295.931 1345.26 316.431 1356.46 339.541 1367.82 348.579 1363.18 357.186 1358.5 365.38 1353.82Z" fill="url(#fill8)" transform="matrix(1.00161 0 0 1 -264.659 -2.07869)"></path><path d="M559.214 1350.61C564.38 1356.23 570.335 1362.23 577.11 1368.38 613.134 1352.83 644.72 1328.84 662.285 1314.07 652.001 1300 642.793 1285.85 634.589 1272.02 605.111 1309.7 567.23 1343.58 559.214 1350.61Z" fill="url(#fill9)" transform="matrix(1.00161 0 0 1 -264.659 -2.07869)"></path><path d="M169.158 1386.76C159.192 1390.11 150.719 1392.69 144.078 1394.59L144.078 1394.59 144.078 1394.59C144.022 1394.6 143.083 1394.82 142.893 1395.22 142.747 1395.53 142.597 1396.16 143.796 1396.68 167.715 1404.49 193.094 1411.05 216.581 1416.3 225.782 1413.69 234.764 1410.93 243.513 1408.04 216.852 1401.2 190.643 1393.68 169.158 1386.76Z" fill="url(#fill10)" transform="matrix(1.00161 0 0 1 -264.659 -2.07869)"></path><path d="M261.025 1412.41C252.795 1415.19 244.362 1417.85 235.737 1420.38 258.128 1424.93 277.637 1428.1 290.793 1429.84 300.557 1428.34 309.962 1426.68 319.03 1424.88 301.238 1421.67 281.274 1417.32 261.025 1412.41Z" fill="url(#fill11)" transform="matrix(1.00161 0 0 1 -264.659 -2.07869)"></path><path d="M324.875 1375.13C301.536 1364.72 279.661 1354.01 264.889 1346.44 255.755 1351.09 246.84 1355.38 238.233 1359.33 257.05 1367.71 279.398 1376.94 302.105 1385.6 309.942 1382.17 317.531 1378.67 324.875 1375.13Z" fill="url(#fill12)" transform="matrix(1.00161 0 0 1 -264.659 -2.07869)"></path><path d="M316.26 1390.89C337.146 1398.56 357.78 1405.47 375.737 1410.52 383.326 1408.15 390.587 1405.68 397.539 1403.13 379.925 1398.01 358.764 1389.79 337.907 1380.84 330.922 1384.23 323.708 1387.6 316.26 1390.89Z" fill="url(#fill13)" transform="matrix(1.00161 0 0 1 -264.659 -2.07869)"></path><path d="M286.985 1392C260.382 1383.16 235.333 1374.25 218.526 1368.02 208.744 1372.16 199.489 1375.82 190.906 1379.03 208.816 1385.25 234.666 1393.74 261.966 1401.65 270.544 1398.53 278.885 1395.3 286.985 1392Z" fill="url(#fill14)" transform="matrix(1.00161 0 0 1 -264.659 -2.07869)"></path><path d="M278.383 1406.27C299.771 1412.11 321.236 1417.24 339.792 1420.35 347.331 1418.57 354.605 1416.68 361.627 1414.7 343.634 1409.97 322.789 1403.63 302.116 1396.96 294.427 1400.15 286.514 1403.26 278.383 1406.27Z" fill="url(#fill15)" transform="matrix(1.00161 0 0 1 -264.659 -2.07869)"></path><path d="M633.224 1408.36C654.293 1406.73 693.165 1402.15 732.588 1389.33 725.169 1383.15 718.052 1376.76 711.221 1370.21 691.393 1377.67 654.127 1391.25 613.21 1396.33 619.486 1400.44 626.151 1404.47 633.224 1408.36Z" fill="url(#fill16)" transform="matrix(1.00161 0 0 1 -264.659 -2.07869)"></path><path d="M604.396 1390.31C621.621 1386.87 660.475 1376.5 698.956 1357.95 690.812 1349.45 683.132 1340.74 675.969 1331.89 657.302 1343.28 620.135 1364.42 585.021 1375.31 590.94 1380.31 597.395 1385.34 604.396 1390.31Z" fill="url(#fill17)" transform="matrix(1.00161 0 0 1 -264.659 -2.07869)"></path><path d="M759.981 1410.23C754.056 1406.1 748.284 1401.84 742.665 1397.45 731.335 1401.23 694.115 1412.41 644.83 1414.38 652.008 1417.91 659.569 1421.27 667.512 1424.4 688.686 1425.38 720.975 1423.9 759.968 1412.46 760.685 1412.19 760.896 1411.9 760.918 1411.5 760.956 1410.84 759.981 1410.23 759.981 1410.23Z" fill="url(#fill18)" transform="matrix(1.00161 0 0 1 -264.659 -2.07869)"></path><path d="M371.727 1278.83C358.459 1289.16 345.135 1298.72 331.856 1307.51 354.816 1327.14 402.125 1364.44 439.603 1385.1 447.938 1380.95 455.647 1376.73 462.763 1372.49 439.536 1351.3 390.851 1299.38 371.727 1278.83Z" fill="url(#fill19)" transform="matrix(1.00161 0 0 1 -264.659 -2.07869)"></path><path d="M468.512 1186.79C479.259 1236.91 495.706 1315.8 501.71 1345.07 514.983 1333.94 524.229 1323.91 530.263 1316.45 549.627 1209.53 544.422 1100.23 544.422 1100.23 544.397 1099.32 544.33 1092.51 542.247 1091.71 539.527 1090.65 537.869 1093.68 537.869 1093.68 537.869 1093.68 496.882 1155.87 468.512 1186.79Z" fill="url(#fill20)" transform="matrix(1.00161 0 0 1 -264.659 -2.07869)"></path><path d="M848.427 305.065C827.9 265.252 814.601 230.098 806.988 207.362 803.264 228.137 794.088 275.681 780.497 323.333 791.677 342.785 802.669 358.199 812.258 371.716 825.378 351.995 838.82 328.836 848.427 305.065Z" fill="url(#fill21)" transform="matrix(1.00161 0 0 1 -264.659 -2.07869)"></path><path d="M803.403 384.612C793.72 370.979 784.416 356.328 775.293 340.791 768.511 362.626 760.813 383.776 752.29 401.634 756.345 407.605 762.576 416.103 771.107 426.033 776.124 420.255 788.941 405.058 803.403 384.612Z" fill="url(#fill22)" transform="matrix(1.00161 0 0 1 -264.659 -2.07869)"></path><path d="M630.919 400.649C644.092 418.798 658.452 437.54 672.84 454.511 684.033 447.429 693.857 440.392 702.469 433.601 695.06 416.939 684.882 391.826 674.679 365.922 664.947 374.438 650.247 386.594 630.919 400.649Z" fill="url(#fill23)" transform="matrix(1.00161 0 0 1 -264.659 -2.07869)"></path><path d="M668.937 351.334C656.57 319.722 644.944 289.095 638.982 273.316 620.111 292.798 600.816 310.796 581.338 327.344 590.149 341.398 604.979 364.159 622.643 389.088 643.505 373.64 659.027 360.352 668.937 351.334Z" fill="url(#fill24)" transform="matrix(1.00161 0 0 1 -264.659 -2.07869)"></path><path d="M531.513 461.801C553.969 472.441 577.805 482.799 600.671 491.032 609.599 487.443 618.056 483.769 626.057 480.005 606.034 471.124 583.278 458.961 560.829 445.876 551.522 451.182 541.756 456.523 531.513 461.801Z" fill="url(#fill25)" transform="matrix(1.00161 0 0 1 -264.659 -2.07869)"></path><path d="M547.527 438.008C524.404 424.104 502.266 409.727 484.515 397.539 472.287 405.006 460.217 411.97 448.375 418.409 464.824 427.805 489.224 441.142 516.75 454.67 527.518 449.154 537.773 443.569 547.527 438.008Z" fill="url(#fill26)" transform="matrix(1.00161 0 0 1 -264.659 -2.07869)"></path><path d="M778.36 434.177C784.499 440.862 791.592 448.007 799.662 455.336 842.557 436.814 880.165 408.244 901.086 390.665 888.834 373.916 877.873 357.07 868.096 340.591 832.997 385.461 787.904 425.809 778.36 434.177Z" fill="url(#fill27)" transform="matrix(1.00161 0 0 1 -264.659 -2.07869)"></path><path d="M313.856 477.229C302 481.224 291.918 484.289 283.994 486.547L283.994 486.547 283.994 486.547C283.933 486.572 282.799 486.827 282.584 487.309 282.41 487.672 282.233 488.418 283.669 489.041 312.131 498.343 342.364 506.162 370.329 512.406 381.289 509.292 391.985 506.008 402.403 502.575 370.651 494.431 339.453 485.472 313.856 477.229Z" fill="url(#fill28)" transform="matrix(1.00161 0 0 1 -264.659 -2.07869)"></path><path d="M423.257 507.775C413.457 511.087 403.427 514.257 393.15 517.264 419.802 522.676 443.04 526.467 458.701 528.531 470.322 526.745 481.526 524.771 492.323 522.616 471.14 518.796 447.371 513.623 423.257 507.775Z" fill="url(#fill29)" transform="matrix(1.00161 0 0 1 -264.659 -2.07869)"></path><path d="M499.288 463.379C471.489 450.989 445.455 438.23 427.872 429.212 416.981 434.757 406.366 439.868 396.112 444.568 418.539 454.536 445.13 465.545 472.184 475.842 481.502 471.758 490.549 467.6 499.288 463.379Z" fill="url(#fill30)" transform="matrix(1.00161 0 0 1 -264.659 -2.07869)"></path><path d="M489.025 482.149C513.903 491.283 538.467 499.517 559.854 505.526 568.899 502.696 577.531 499.752 585.81 496.721 564.855 490.622 539.641 480.841 514.817 470.17 506.494 474.22 497.893 478.231 489.025 482.149Z" fill="url(#fill31)" transform="matrix(1.00161 0 0 1 -264.659 -2.07869)"></path><path d="M454.177 483.464C422.493 472.941 392.657 462.323 372.648 454.908 360.991 459.83 349.988 464.201 339.763 468.023 361.085 475.426 391.862 485.548 424.382 494.951 434.589 491.25 444.514 487.41 454.177 483.464Z" fill="url(#fill32)" transform="matrix(1.00161 0 0 1 -264.659 -2.07869)"></path><path d="M443.923 500.462C469.39 507.412 494.96 513.531 517.046 517.23 526.021 515.095 534.703 512.857 543.055 510.513 521.619 504.863 496.808 497.33 472.181 489.366 463.036 493.174 453.615 496.88 443.923 500.462Z" fill="url(#fill33)" transform="matrix(1.00161 0 0 1 -264.659 -2.07869)"></path><path d="M866.472 502.94C891.562 501.016 937.859 495.569 984.798 480.29 975.973 472.923 967.48 465.326 959.349 457.52 935.751 466.415 891.37 482.573 842.645 488.624 850.119 493.526 858.043 498.323 866.472 502.94Z" fill="url(#fill34)" transform="matrix(1.00161 0 0 1 -264.659 -2.07869)"></path><path d="M832.157 481.464C852.662 477.368 898.929 465.016 944.753 442.917 935.052 432.797 925.906 422.424 917.381 411.884 895.143 425.446 850.885 450.628 809.083 463.589 816.127 469.538 823.816 475.542 832.157 481.464Z" fill="url(#fill35)" transform="matrix(1.00161 0 0 1 -264.659 -2.07869)"></path><path d="M1017.42 505.183C1010.37 500.259 1003.5 495.184 996.812 489.959 983.304 494.46 938.992 507.766 880.295 510.123 888.84 514.331 897.851 518.328 907.317 522.051 932.518 523.232 970.968 521.451 1017.41 507.834 1018.25 507.515 1018.52 507.161 1018.54 506.7 1018.59 505.9 1017.42 505.183 1017.42 505.183Z" fill="url(#fill36)" transform="matrix(1.00161 0 0 1 -264.659 -2.07869)"></path><path d="M555.084 348.7C539.28 360.997 523.409 372.395 507.598 382.853 534.945 406.234 591.276 450.655 635.915 475.249 645.833 470.313 655.017 465.279 663.49 460.242 635.834 435.01 577.856 373.174 555.084 348.7Z" fill="url(#fill37)" transform="matrix(1.00161 0 0 1 -264.659 -2.07869)"></path><path d="M670.341 239.097C683.141 298.785 702.714 392.729 709.87 427.581 725.68 414.329 736.681 402.378 743.866 393.502 766.94 266.175 760.743 136.026 760.743 136.026 760.707 134.935 760.629 126.833 758.135 125.877 754.914 124.627 752.924 128.223 752.924 128.223 752.924 128.223 704.109 202.285 670.341 239.097Z" fill="url(#fill38)" transform="matrix(1.00161 0 0 1 -264.659 -2.07869)"></path><path d="M451.26 629.364C451.578 629.046 490.748 590.461 490.748 590.461 490.748 590.461 529.929 629.046 530.242 629.364 530.668 629.364 556.227 629.364 558.591 629.364 556.859 627.587 519.517 589.22 519.517 589.22 519.517 589.22 550.536 589.22 551.592 589.22 551.592 588.209 551.592 571.18 551.592 570.18 550.509 570.18 430.989 570.18 429.909 570.18 429.909 571.18 429.909 588.207 429.909 589.22 430.969 589.22 461.983 589.22 461.983 589.22 461.983 589.22 424.642 627.587 422.914 629.364 425.271 629.364 450.843 629.364 451.26 629.364Z" fill="#4C5C65" transform="matrix(1.00161 0 0 1 -264.659 -2.07869)"></path><path d="M275.135 570.18 239.528 663.031 259.868 663.031 283.579 601.327 307.299 663.031 327.642 663.031 292.041 570.18Z" fill="#4C5C65" transform="matrix(1.00161 0 0 1 -264.659 -2.07869)"></path><path d="M374.297 663.026C375.307 663.026 393.618 663.026 394.626 663.026 394.626 661.951 394.626 571.256 394.626 570.18 393.616 570.18 375.307 570.18 374.297 570.18 374.297 571.256 374.297 661.951 374.297 663.026Z" fill="#4C5C65" transform="matrix(1.00161 0 0 1 -264.659 -2.07869)"></path><path d="M338.615 597.969C336.337 595.22 332.896 593.463 329.06 593.463 322.224 593.463 316.673 599.019 316.673 605.841 316.673 612.682 322.224 618.233 329.06 618.233 332.896 618.233 336.337 616.481 338.615 613.73 338.615 637.595 338.615 662.466 338.615 663.024 339.626 663.024 357.912 663.024 358.921 663.024 358.921 661.949 358.921 571.254 358.921 570.178 357.91 570.178 339.626 570.178 338.615 570.178 338.615 570.57 338.615 582.644 338.615 597.969Z" fill="#4C5C65" transform="matrix(1.00161 0 0 1 -264.659 -2.07869)"></path><path d="M504.529 629.29C504.529 621.675 498.363 615.505 490.748 615.505 483.144 615.505 476.971 621.675 476.971 629.29 476.971 633.334 478.748 636.93 481.517 639.448L418.695 639.448 418.695 658.508 461.506 658.508C454.343 665.861 449.911 675.898 449.911 686.979 449.911 709.531 468.193 727.815 490.746 727.815 513.298 727.815 531.591 709.531 531.591 686.979 531.591 675.896 527.16 665.861 519.988 658.508L562.807 658.508 562.807 639.448 499.979 639.448C502.752 636.93 504.529 633.334 504.529 629.29ZM490.748 707.459C479.438 707.459 470.27 698.284 470.27 686.979 470.27 675.663 479.436 666.495 490.748 666.495 502.069 666.495 511.239 675.663 511.239 686.979 511.239 698.284 502.069 707.459 490.748 707.459Z" fill="#4C5C65" transform="matrix(1.00161 0 0 1 -264.659 -2.07869)"></path><path d="M703.007 630.161C703.507 630.161 750.901 630.161 750.901 630.161L750.901 636.845C750.901 636.845 703.507 636.845 703.007 636.845 703.007 637.326 703.007 662.247 703.007 662.715 703.507 662.715 763.044 662.715 763.535 662.715 763.535 662.267 763.535 654.674 763.535 654.224 763.044 654.224 715.659 654.224 715.659 654.224L715.659 645.347C715.659 645.347 763.044 645.347 763.535 645.347 763.535 644.865 763.535 622.138 763.535 621.657 763.044 621.657 703.507 621.657 703.007 621.657 703.007 622.107 703.007 629.704 703.007 630.161Z" fill="#4C5C65" transform="matrix(1.00161 0 0 1 -264.659 -2.07869)"></path><path d="M750.901 578.307 735.204 578.307C735.204 578.307 735.204 570.667 735.204 570.194 734.75 570.194 723.048 570.194 722.566 570.194 722.566 570.667 722.566 580.63 722.566 580.63L702.814 580.63C702.814 580.63 702.814 570.667 702.814 570.194 702.346 570.194 690.64 570.194 690.181 570.194 690.181 570.682 690.181 611.98 690.181 612.471 690.658 612.471 734.714 612.471 735.204 612.471 735.204 611.998 735.204 604.616 735.204 604.616L750.901 604.616C750.901 604.616 750.901 615.334 750.901 615.802 751.36 615.802 763.076 615.802 763.535 615.802 763.535 615.31 763.535 570.685 763.535 570.196 763.076 570.196 751.36 570.196 750.901 570.196 750.901 570.667 750.901 578.307 750.901 578.307ZM722.568 603.969 702.817 603.969 702.817 603.471 702.817 589.132 722.568 589.132 722.568 603.969ZM750.901 596.118 735.204 596.118 735.204 595.621 735.204 586.816 750.901 586.816 750.901 596.118Z" fill="#4C5C65" transform="matrix(1.00161 0 0 1 -264.659 -2.07869)"></path><path d="M598.408 636.854C598.901 636.854 652.476 636.854 652.476 636.854 652.476 636.854 652.476 662.818 652.476 663.3 652.949 663.3 664.653 663.3 665.117 663.3 665.117 662.818 665.117 628.858 665.117 628.365 664.631 628.365 598.892 628.365 598.408 628.365 598.408 628.822 598.408 636.406 598.408 636.854Z" fill="#4C5C65" transform="matrix(1.00161 0 0 1 -264.659 -2.07869)"></path><path d="M665.119 600.252C664.633 600.252 611.051 600.252 611.051 600.252L611.051 593.087C611.051 593.087 662.881 593.087 663.367 593.087 663.367 592.63 663.367 585.68 663.367 585.227 662.881 585.227 611.051 585.227 611.051 585.227L611.051 578.062C611.051 578.062 664.635 578.062 665.119 578.062 665.119 577.601 665.119 570.651 665.119 570.194 664.633 570.194 598.894 570.194 598.41 570.194 598.41 570.676 598.41 607.627 598.41 608.113 598.896 608.113 664.635 608.113 665.119 608.113 665.119 607.667 665.119 600.709 665.119 600.252Z" fill="#4C5C65" transform="matrix(1.00161 0 0 1 -264.659 -2.07869)"></path><path d="M861.798 570.194C861.334 570.194 849.633 570.194 849.169 570.194 849.169 570.682 849.169 662.236 849.169 662.715 849.633 662.715 861.334 662.715 861.798 662.715 861.798 662.245 861.798 607.482 861.798 607.482 861.798 607.482 874.369 607.482 874.842 607.482 874.842 607.024 874.842 599.436 874.842 598.986 874.369 598.986 861.798 598.986 861.798 598.986 861.798 598.986 861.798 570.685 861.798 570.194Z" fill="#4C5C65" transform="matrix(1.00161 0 0 1 -264.659 -2.07869)"></path><path d="M815.556 586.939 815.556 580.8C815.556 580.8 834.761 580.8 835.242 580.8 835.242 580.332 835.242 572.746 835.242 572.289 834.756 572.289 783.217 572.289 782.731 572.289 782.731 572.746 782.731 580.33 782.731 580.8 783.208 580.8 802.046 580.8 802.422 580.8L802.422 586.939C802.386 605.55 795.08 618.254 781.261 623.478L781.261 633.506C781.449 633.464 800.813 629.397 808.182 614.741L808.991 613.136 809.791 614.741C817.169 629.397 836.524 633.466 836.723 633.506L836.723 623.478C822.888 618.254 815.594 605.55 815.556 586.939Z" fill="#4C5C65" transform="matrix(1.00161 0 0 1 -264.659 -2.07869)"></path><path d="M951.644 662.717C952.108 662.717 963.805 662.717 964.274 662.717 964.274 662.236 964.274 570.685 964.274 570.196L951.644 570.196C951.644 570.685 951.644 662.236 951.644 662.717Z" fill="#4C5C65" transform="matrix(1.00161 0 0 1 -264.659 -2.07869)"></path><path d="M918.221 587.199 918.221 584.566C918.221 584.566 938.529 584.566 939.23 584.566L939.243 584.566C939.243 584.109 939.243 576.514 939.243 576.064L939.23 576.064C938.529 576.064 918.033 576.064 918.033 576.064 918.033 576.064 918.033 568.863 918.033 568.399L918.002 568.399 904.904 568.399 904.882 568.399C904.882 568.863 904.882 576.064 904.882 576.064 904.882 576.064 884.373 576.064 883.685 576.064L883.667 576.064C883.667 576.514 883.667 584.109 883.667 584.566L883.685 584.566C884.373 584.566 904.689 584.566 904.689 584.566L904.689 587.199C904.689 609.193 895.627 619.291 881.463 624.659 881.463 624.659 881.463 634.416 881.463 634.992 881.467 634.992 881.51 634.983 881.51 634.983 881.707 634.943 902.5 630.571 910.635 615.724L911.451 614.109 912.262 615.724C920.41 630.571 941.199 634.943 941.392 634.983L941.444 634.992C941.444 634.416 941.444 624.659 941.444 624.659 927.266 619.291 918.221 609.195 918.221 587.199Z" fill="#4C5C65" transform="matrix(1.00161 0 0 1 -264.659 -2.07869)"></path><path d="M586.103 622.481C586.592 622.481 676.94 622.481 677.43 622.481 677.43 622.024 677.43 614.44 677.43 613.988 676.94 613.988 586.592 613.988 586.103 613.988 586.103 614.44 586.103 622.026 586.103 622.481Z" fill="#4C5C65" transform="matrix(1.00161 0 0 1 -264.659 -2.07869)"></path><path d="M1048.97 570.194C1048.97 570.682 1048.97 662.236 1048.97 662.715 1049.45 662.715 1061.14 662.715 1061.6 662.715 1061.6 662.233 1061.6 570.682 1061.6 570.194L1048.97 570.194Z" fill="#4C5C65" transform="matrix(1.00161 0 0 1 -264.659 -2.07869)"></path><path d="M1015.55 587.199 1015.55 570.178 1002.01 570.178 1002.01 587.199C1002.01 609.193 992.96 619.291 978.783 624.659 978.783 624.659 978.783 634.416 978.783 634.992L978.839 634.983C979.036 634.943 999.825 630.571 1007.96 615.724L1008.78 614.109 1009.6 615.724C1017.73 630.571 1038.52 634.943 1038.72 634.983L1038.77 634.992C1038.77 634.416 1038.77 624.659 1038.77 624.659 1024.6 619.291 1015.55 609.195 1015.55 587.199Z" fill="#4C5C65" transform="matrix(1.00161 0 0 1 -264.659 -2.07869)"></path></g></g></g></svg>