<svg width="798" height="679" xmlns="http://www.w3.org/2000/svg" xmlns:xlink="http://www.w3.org/1999/xlink" overflow="hidden"><defs><clipPath id="clip0"><rect x="-21" y="39" width="798" height="679"></rect></clipPath></defs><g clip-path="url(#clip0)" transform="translate(21 -39)"><path d="M415.082 39C417.554 79.4159 400.249 92.6132 375.528 95.0872 354.104 95.0872 340.92 100.861 331.032 112.409L212.373 316.139C278.295 319.438 341.743 343.358 396.129 421.715 426.618 465.432 480.179 502.548 580.709 521.519 506.547 538.015 453.81 506.671 366.464 479.453 296.422 458.007 189.3 448.935 115.963 482.752L-20 717.001C73.1147 639.467 240.39 619.672 359.872 665.037 497.483 717.001 630.15 732.672 776.001 657.614L676.295 488.526C658.99 502.548 641.687 509.972 624.382 512.445L643.334 377.176C582.357 383.774 529.62 368.927 490.891 324.387 433.21 256.752 377.177 206.438 321.967 194.89 335.976 166.022 364.817 170.146 400.249 182.518 425.794 190.766 471.115 180.868 481.002 150.35L415.082 39Z" fill="#008C95" fill-rule="evenodd"></path><path d="M234.266 326C270.454 326 299.266 354.811 300 391 300 426.454 271.189 456 235 456 199.546 456 170 427.201 170 391.746 170.012 355.534 198.823 326.735 234.266 326Z" fill="#FC4C02" fill-rule="evenodd"></path></g></svg>